ArchivoNarrow-BoldItalic.ufo
<glyph name="ampersand" format="2">
  <advance width="592"/>
  <unicode hex="0026"/>
  <outline>
    <contour>
      <point x="392" y="0" type="line"/>
      <point x="524" y="0" type="line"/>
      <point x="307" y="400" type="line"/>
      <point x="287" y="429"/>
      <point x="277" y="472"/>
      <point x="277" y="510" type="curve" smooth="yes"/>
      <point x="277" y="557"/>
      <point x="295" y="597"/>
      <point x="339" y="597" type="curve" smooth="yes"/>
      <point x="366" y="597"/>
      <point x="377" y="577"/>
      <point x="377" y="551" type="curve" smooth="yes"/>
      <point x="377" y="499"/>
      <point x="330" y="431"/>
      <point x="265" y="424" type="curve"/>
      <point x="292" y="327" type="line"/>
      <point x="417" y="360"/>
      <point x="494" y="467"/>
      <point x="494" y="563" type="curve" smooth="yes"/>
      <point x="494" y="637"/>
      <point x="450" y="698"/>
      <point x="349" y="698" type="curve" smooth="yes"/>
      <point x="232" y="698"/>
      <point x="162" y="611"/>
      <point x="162" y="504" type="curve" smooth="yes"/>
      <point x="162" y="462"/>
      <point x="173" y="416"/>
      <point x="200" y="364" type="curve" smooth="yes"/>
    </contour>
    <contour>
      <point x="204" y="-13" type="curve" smooth="yes"/>
      <point x="335" y="-13"/>
      <point x="504" y="102"/>
      <point x="559" y="359" type="curve"/>
      <point x="451" y="359" type="line"/>
      <point x="415" y="176"/>
      <point x="316" y="89"/>
      <point x="217" y="89" type="curve" smooth="yes"/>
      <point x="171" y="89"/>
      <point x="151" y="124"/>
      <point x="151" y="166" type="curve" smooth="yes"/>
      <point x="151" y="225"/>
      <point x="191" y="305"/>
      <point x="260" y="316" type="curve"/>
      <point x="231" y="415" type="line"/>
      <point x="101" y="382"/>
      <point x="30" y="258"/>
      <point x="30" y="155" type="curve" smooth="yes"/>
      <point x="30" y="66"/>
      <point x="85" y="-13"/>
    </contour>
  </outline>
</glyph>
<glyph name="one" format="2">
  <advance width="456"/>
  <unicode hex="0031"/>
  <outline>
    <contour>
      <point x="-2" y="0" type="line"/>
      <point x="408" y="0" type="line"/>
      <point x="422" y="101" type="line"/>
      <point x="282" y="101" type="line"/>
      <point x="364" y="686" type="line"/>
      <point x="306" y="686" type="line"/>
      <point x="237" y="646"/>
      <point x="138" y="615"/>
      <point x="81" y="609" type="curve"/>
      <point x="70" y="529" type="line"/>
      <point x="224" y="529" type="line"/>
      <point x="163" y="101" type="line"/>
      <point x="11" y="101" type="line"/>
    </contour>
  </outline>
</glyph>
<glyph name="two" format="2">
  <advance width="456"/>
  <unicode hex="0032"/>
  <outline>
    <contour>
      <point x="-4" y="0" type="line"/>
      <point x="384" y="0" type="line"/>
      <point x="400" y="112" type="line"/>
      <point x="164" y="112" type="line"/>
      <point x="171" y="123"/>
      <point x="181" y="135"/>
      <point x="193" y="148" type="curve" smooth="yes"/>
      <point x="278" y="237"/>
      <point x="457" y="365"/>
      <point x="457" y="550" type="curve"/>
      <point x="454" y="654"/>
      <point x="384" y="698"/>
      <point x="287" y="698" type="curve" smooth="yes"/>
      <point x="144" y="698"/>
      <point x="68" y="582"/>
      <point x="68" y="450" type="curve"/>
      <point x="189" y="450" type="line"/>
      <point x="194" y="491" type="line" smooth="yes"/>
      <point x="201" y="547"/>
      <point x="227" y="595"/>
      <point x="276" y="595" type="curve" smooth="yes"/>
      <point x="317" y="595"/>
      <point x="331" y="564"/>
      <point x="331" y="535" type="curve" smooth="yes"/>
      <point x="331" y="413"/>
      <point x="191" y="331"/>
      <point x="92" y="211" type="curve" smooth="yes"/>
      <point x="48" y="158"/>
      <point x="12" y="98"/>
      <point x="0" y="24" type="curve" smooth="yes"/>
    </contour>
  </outline>
</glyph>
<glyph name="A" format="2">
  <advance width="592"/>
  <unicode hex="0041"/>
  <anchor x="252" y="0" name="bottom"/>
  <anchor x="551" y="0" name="ogonek"/>
  <anchor x="352" y="686" name="top"/>
  <outline>
    <contour>
      <point x="-33" y="0" type="line"/>
      <point x="95" y="0" type="line"/>
      <point x="154" y="135" type="line"/>
      <point x="399" y="135" type="line"/>
      <point x="421" y="0" type="line"/>
      <point x="551" y="0" type="line"/>
      <point x="428" y="686" type="line"/>
      <point x="281" y="686" type="line"/>
    </contour>
    <contour>
      <point x="205" y="249" type="line"/>
      <point x="288" y="437" type="line" smooth="yes"/>
      <point x="310" y="486"/>
      <point x="334" y="570"/>
      <point x="334" y="570" type="curve"/>
      <point x="338" y="570" type="line"/>
      <point x="338" y="570"/>
      <point x="342" y="489"/>
      <point x="350" y="437" type="curve" smooth="yes"/>
      <point x="380" y="249" type="line"/>
    </contour>
  </outline>
</glyph>
<glyph name="E" format="2">
  <advance width="547"/>
  <unicode hex="0045"/>
  <anchor x="248" y="0" name="bottom"/>
  <anchor x="466" y="0" name="ogonek"/>
  <anchor x="344" y="686" name="top"/>
  <outline>
    <contour>
      <point x="28" y="0" type="line"/>
      <point x="466" y="0" type="line"/>
      <point x="482" y="114" type="line"/>
      <point x="170" y="114" type="line"/>
      <point x="196" y="294" type="line"/>
      <point x="458" y="294" type="line"/>
      <point x="474" y="408" type="line"/>
      <point x="212" y="408" type="line"/>
      <point x="235" y="572" type="line"/>
      <point x="540" y="572" type="line"/>
      <point x="556" y="686" type="line"/>
      <point x="124" y="686" type="line"/>
    </contour>
  </outline>
</glyph>
<glyph name="F" format="2">
  <advance width="501"/>
  <unicode hex="0046"/>
  <outline>
    <contour>
      <point x="28" y="0" type="line"/>
      <point x="155" y="0" type="line"/>
      <point x="195" y="285" type="line"/>
      <point x="427" y="285" type="line"/>
      <point x="443" y="399" type="line"/>
      <point x="211" y="399" type="line"/>
      <point x="235" y="572" type="line"/>
      <point x="508" y="572" type="line"/>
      <point x="523" y="686" type="line"/>
      <point x="125" y="686" type="line"/>
    </contour>
  </outline>
</glyph>
<glyph name="H" format="2">
  <advance width="592"/>
  <unicode hex="0048"/>
  <anchor x="336" y="540" name="center"/>
  <anchor x="357" y="686" name="top"/>
  <outline>
    <contour>
      <point x="26" y="0" type="line"/>
      <point x="153" y="0" type="line"/>
      <point x="194" y="294" type="line"/>
      <point x="408" y="294" type="line"/>
      <point x="366" y="0" type="line"/>
      <point x="493" y="0" type="line"/>
      <point x="589" y="686" type="line"/>
      <point x="462" y="686" type="line"/>
      <point x="424" y="408" type="line"/>
      <point x="210" y="408" type="line"/>
      <point x="249" y="686" type="line"/>
      <point x="122" y="686" type="line"/>
    </contour>
  </outline>
</glyph>
<glyph name="I" format="2">
  <advance width="228"/>
  <unicode hex="0049"/>
  <anchor x="77" y="0" name="bottom"/>
  <anchor x="128" y="0" name="ogonek"/>
  <anchor x="178" y="686" name="top"/>
  <anchor x="79" y="686" name="topleft"/>
  <outline>
    <contour>
      <point x="18" y="0" type="line"/>
      <point x="145" y="0" type="line"/>
      <point x="241" y="686" type="line"/>
      <point x="114" y="686" type="line"/>
    </contour>
  </outline>
</glyph>
<glyph name="L" format="2">
  <advance width="501"/>
  <unicode hex="004C"/>
  <anchor x="262" y="0" name="bottom"/>
  <anchor x="390" y="360" name="center"/>
  <anchor x="188" y="686" name="top"/>
  <anchor x="329" y="526" name="topright"/>
  <outline>
    <contour>
      <point x="28" y="0" type="line"/>
      <point x="442" y="0" type="line"/>
      <point x="459" y="120" type="line"/>
      <point x="172" y="120" type="line"/>
      <point x="251" y="686" type="line"/>
      <point x="124" y="686" type="line"/>
    </contour>
  </outline>
</glyph>
<glyph name="M" format="2">
  <advance width="683"/>
  <unicode hex="004D"/>
  <outline>
    <contour>
      <point x="21" y="0" type="line"/>
      <point x="129" y="0" type="line"/>
      <point x="191" y="437" type="line" smooth="yes"/>
      <point x="195" y="464"/>
      <point x="201" y="547"/>
      <point x="201" y="547" type="curve"/>
      <point x="205" y="547" type="line"/>
      <point x="208" y="511"/>
      <point x="210" y="476"/>
      <point x="213" y="440" type="curve"/>
      <point x="248" y="0" type="line"/>
      <point x="358" y="0" type="line"/>
      <point x="515" y="441" type="line"/>
      <point x="528" y="476"/>
      <point x="540" y="512"/>
      <point x="553" y="547" type="curve"/>
      <point x="557" y="547" type="line"/>
      <point x="557" y="547"/>
      <point x="541" y="468"/>
      <point x="537" y="437" type="curve" smooth="yes"/>
      <point x="476" y="0" type="line"/>
      <point x="593" y="0" type="line"/>
      <point x="689" y="686" type="line"/>
      <point x="516" y="686" type="line"/>
      <point x="381" y="312" type="line" smooth="yes"/>
      <point x="366" y="272"/>
      <point x="336" y="153"/>
      <point x="336" y="153" type="curve"/>
      <point x="332" y="153" type="line"/>
      <point x="332" y="153"/>
      <point x="329" y="263"/>
      <point x="325" y="308" type="curve" smooth="yes"/>
      <point x="294" y="686" type="line"/>
      <point x="117" y="686" type="line"/>
    </contour>
  </outline>
</glyph>
<glyph name="O" format="2">
  <advance width="638"/>
  <unicode hex="004F"/>
  <anchor x="282" y="0" name="bottom"/>
  <anchor x="330" y="343" name="center"/>
  <anchor x="323" y="0" name="ogonek"/>
  <anchor x="383" y="686" name="top"/>
  <anchor x="79" y="686" name="topleft"/>
  <anchor x="441" y="686" name="topright"/>
  <outline>
    <contour>
      <point x="295" y="-12" type="curve" smooth="yes"/>
      <point x="532" y="-12"/>
      <point x="619" y="234"/>
      <point x="619" y="435" type="curve" smooth="yes"/>
      <point x="619" y="614"/>
      <point x="524" y="698"/>
      <point x="364" y="698" type="curve" smooth="yes"/>
      <point x="126" y="698"/>
      <point x="41" y="451"/>
      <point x="41" y="250" type="curve" smooth="yes"/>
      <point x="41" y="72"/>
      <point x="135" y="-12"/>
    </contour>
    <contour>
      <point x="290" y="98" type="curve" smooth="yes"/>
      <point x="208" y="98"/>
      <point x="170" y="156"/>
      <point x="170" y="255" type="curve" smooth="yes"/>
      <point x="170" y="383"/>
      <point x="207" y="588"/>
      <point x="369" y="588" type="curve" smooth="yes"/>
      <point x="450" y="588"/>
      <point x="489" y="530"/>
      <point x="489" y="430" type="curve" smooth="yes"/>
      <point x="489" y="303"/>
      <point x="451" y="98"/>
    </contour>
  </outline>
</glyph>
<glyph name="R" format="2">
  <advance width="592"/>
  <unicode hex="0052"/>
  <anchor x="271" y="0" name="bottom"/>
  <anchor x="339" y="686" name="top"/>
  <outline>
    <contour>
      <point x="28" y="0" type="line"/>
      <point x="155" y="0" type="line"/>
      <point x="194" y="286" type="line"/>
      <point x="320" y="286" type="line"/>
      <point x="400" y="0" type="line"/>
      <point x="537" y="0" type="line"/>
      <point x="445" y="311" type="line"/>
      <point x="534" y="341"/>
      <point x="590" y="418"/>
      <point x="590" y="517" type="curve" smooth="yes"/>
      <point x="590" y="617"/>
      <point x="526" y="686"/>
      <point x="393" y="686" type="curve" smooth="yes"/>
      <point x="124" y="686" type="line"/>
    </contour>
    <contour>
      <point x="210" y="399" type="line"/>
      <point x="235" y="572" type="line"/>
      <point x="374" y="572" type="line"/>
      <point x="429" y="572"/>
      <point x="453" y="544"/>
      <point x="453" y="499" type="curve" smooth="yes"/>
      <point x="453" y="437"/>
      <point x="412" y="399"/>
      <point x="345" y="399" type="curve" smooth="yes"/>
    </contour>
  </outline>
</glyph>
<glyph name="T" format="2">
  <advance width="501"/>
  <unicode hex="0054"/>
  <anchor x="215" y="0" name="bottom"/>
  <anchor x="263" y="343" name="center"/>
  <anchor x="311" y="686" name="top"/>
  <outline>
    <contour>
      <point x="153" y="0" type="line"/>
      <point x="279" y="0" type="line"/>
      <point x="359" y="572" type="line"/>
      <point x="528" y="572" type="line"/>
      <point x="544" y="686" type="line"/>
      <point x="80" y="686" type="line"/>
      <point x="64" y="572" type="line"/>
      <point x="233" y="572" type="line"/>
    </contour>
  </outline>
</glyph>
<glyph name="U" format="2">
  <advance width="592"/>
  <unicode hex="0055"/>
  <anchor x="259" y="0" name="bottom"/>
  <anchor x="380" y="5" name="ogonek"/>
  <anchor x="359" y="686" name="top"/>
  <anchor x="491" y="686" name="topright"/>
  <outline>
    <contour>
      <point x="282" y="-12" type="curve" smooth="yes"/>
      <point x="417" y="-12"/>
      <point x="506" y="69"/>
      <point x="528" y="223" type="curve" smooth="yes"/>
      <point x="593" y="686" type="line"/>
      <point x="466" y="686" type="line"/>
      <point x="402" y="227" type="line" smooth="yes"/>
      <point x="390" y="143"/>
      <point x="348" y="98"/>
      <point x="282" y="98" type="curve" smooth="yes"/>
      <point x="221" y="98"/>
      <point x="187" y="133"/>
      <point x="187" y="199" type="curve" smooth="yes"/>
      <point x="187" y="227"/>
      <point x="254" y="686"/>
      <point x="254" y="686" type="curve"/>
      <point x="127" y="686" type="line"/>
      <point x="127" y="686"/>
      <point x="59" y="223"/>
      <point x="59" y="176" type="curve" smooth="yes"/>
      <point x="59" y="53"/>
      <point x="140" y="-12"/>
    </contour>
  </outline>
</glyph>
<glyph name="W" format="2">
  <advance width="774"/>
  <unicode hex="0057"/>
  <anchor x="453" y="686" name="top"/>
  <outline>
    <contour>
      <point x="118" y="0" type="line"/>
      <point x="253" y="0" type="line"/>
      <point x="399" y="437" type="line" smooth="yes"/>
      <point x="409" y="466"/>
      <point x="425" y="534"/>
      <point x="425" y="534" type="curve"/>
      <point x="430" y="534" type="line"/>
      <point x="429" y="488"/>
      <point x="429" y="454"/>
      <point x="430" y="437" type="curve" smooth="yes"/>
      <point x="461" y="0" type="line"/>
      <point x="596" y="0" type="line"/>
      <point x="832" y="686" type="line"/>
      <point x="720" y="686" type="line"/>
      <point x="581" y="264" type="line" smooth="yes"/>
      <point x="570" y="230"/>
      <point x="555" y="168"/>
      <point x="555" y="168" type="curve"/>
      <point x="551" y="168" type="line"/>
      <point x="550" y="200"/>
      <point x="548" y="232"/>
      <point x="547" y="264" type="curve"/>
      <point x="529" y="686" type="line"/>
      <point x="384" y="686" type="line"/>
      <point x="244" y="264" type="line" smooth="yes"/>
      <point x="234" y="235"/>
      <point x="218" y="168"/>
      <point x="218" y="168" type="curve"/>
      <point x="214" y="168" type="line"/>
      <point x="213" y="201"/>
      <point x="211" y="233"/>
      <point x="210" y="266" type="curve"/>
      <point x="193" y="686" type="line"/>
      <point x="67" y="686" type="line"/>
    </contour>
  </outline>
</glyph>
<glyph name="Y" format="2">
  <advance width="547"/>
  <unicode hex="0059"/>
  <anchor x="237" y="0" name="bottom"/>
  <anchor x="340" y="686" name="top"/>
  <anchor x="79" y="686" name="topleft"/>
  <outline>
    <contour>
      <point x="179" y="0" type="line"/>
      <point x="305" y="0" type="line"/>
      <point x="342" y="259" type="line"/>
      <point x="608" y="686" type="line"/>
      <point x="479" y="686" type="line"/>
      <point x="300" y="385" type="line"/>
      <point x="296" y="385" type="line"/>
      <point x="197" y="686" type="line"/>
      <point x="67" y="686" type="line"/>
      <point x="215" y="259" type="line"/>
    </contour>
  </outline>
</glyph>
<glyph name="Z" format="2">
  <advance width="501"/>
  <unicode hex="005A"/>
  <anchor x="311" y="686" name="top"/>
  <outline>
    <contour>
      <point x="-12" y="0" type="line"/>
      <point x="443" y="0" type="line"/>
      <point x="459" y="114" type="line"/>
      <point x="181" y="114" type="line"/>
      <point x="525" y="636" type="line"/>
      <point x="529" y="686" type="line"/>
      <point x="101" y="686" type="line"/>
      <point x="85" y="572" type="line"/>
      <point x="335" y="572" type="line"/>
      <point x="-8" y="49" type="line"/>
    </contour>
  </outline>
</glyph>
<glyph name="grave" format="2">
  <advance width="273"/>
  <unicode hex="0060"/>
  <anchor x="197" y="526" name="_top"/>
  <outline>
    <contour>
      <point x="176" y="591" type="line"/>
      <point x="275" y="591" type="line"/>
      <point x="208" y="723" type="line"/>
      <point x="88" y="723" type="line"/>
      <point x="86" y="720" type="line"/>
    </contour>
  </outline>
</glyph>
<glyph name="l" format="2">
  <advance width="228"/>
  <unicode hex="006C"/>
  <anchor x="81" y="0" name="bottom"/>
  <anchor x="292" y="362" name="center"/>
  <anchor x="178" y="700" name="top"/>
  <anchor x="244" y="526" name="topright"/>
  <outline>
    <contour>
      <point x="22" y="0" type="line"/>
      <point x="141" y="0" type="line"/>
      <point x="241" y="723" type="line"/>
      <point x="122" y="723" type="line"/>
    </contour>
  </outline>
</glyph>
<glyph name="o" format="2">
  <advance width="501"/>
  <unicode hex="006F"/>
  <anchor x="214" y="0" name="bottom"/>
  <anchor x="251" y="263" name="center"/>
  <anchor x="265" y="0" name="ogonek"/>
  <anchor x="287" y="526" name="top"/>
  <anchor x="308" y="526" name="topright"/>
  <outline>
    <contour>
      <point x="222" y="-12" type="curve" smooth="yes"/>
      <point x="421" y="-12"/>
      <point x="465" y="188"/>
      <point x="465" y="343" type="curve" smooth="yes"/>
      <point x="465" y="474"/>
      <point x="401" y="538"/>
      <point x="279" y="538" type="curve" smooth="yes"/>
      <point x="80" y="538"/>
      <point x="36" y="335"/>
      <point x="36" y="180" type="curve" smooth="yes"/>
      <point x="36" y="49"/>
      <point x="100" y="-12"/>
    </contour>
    <contour>
      <point x="226" y="89" type="curve"/>
      <point x="179" y="89"/>
      <point x="159" y="121"/>
      <point x="159" y="183" type="curve" smooth="yes"/>
      <point x="159" y="221"/>
      <point x="165" y="437"/>
      <point x="275" y="437" type="curve" smooth="yes"/>
      <point x="322" y="437"/>
      <point x="342" y="404"/>
      <point x="342" y="343" type="curve" smooth="yes"/>
      <point x="342" y="305"/>
      <point x="336" y="89"/>
    </contour>
  </outline>
</glyph>
<glyph name="q" format="2">
  <advance width="501"/>
  <unicode hex="0071"/>
  <outline>
    <contour>
      <point x="265" y="-172" type="line"/>
      <point x="384" y="-172" type="line"/>
      <point x="480" y="526" type="line"/>
      <point x="386" y="526" type="line"/>
      <point x="363" y="456" type="line"/>
      <point x="340" y="513"/>
      <point x="296" y="538"/>
      <point x="241" y="538" type="curve" smooth="yes"/>
      <point x="82" y="538"/>
      <point x="36" y="312"/>
      <point x="36" y="177" type="curve" smooth="yes"/>
      <point x="36" y="46"/>
      <point x="91" y="-12"/>
      <point x="171" y="-12" type="curve" smooth="yes"/>
      <point x="221" y="-12"/>
      <point x="267" y="12"/>
      <point x="295" y="52" type="curve"/>
    </contour>
    <contour>
      <point x="220" y="97" type="curve" smooth="yes"/>
      <point x="175" y="97"/>
      <point x="158" y="128"/>
      <point x="158" y="186" type="curve" smooth="yes"/>
      <point x="158" y="257"/>
      <point x="172" y="429"/>
      <point x="268" y="429" type="curve" smooth="yes"/>
      <point x="314" y="429"/>
      <point x="333" y="396"/>
      <point x="333" y="338" type="curve" smooth="yes"/>
      <point x="333" y="264"/>
      <point x="314" y="97"/>
    </contour>
  </outline>
</glyph>
<glyph name="t" format="2">
  <advance width="273"/>
  <unicode hex="0074"/>
  <anchor x="134" y="0" name="bottom"/>
  <anchor x="137" y="263" name="center"/>
  <anchor x="163" y="526" name="top"/>
  <anchor x="251" y="546" name="topright"/>
  <outline>
    <contour>
      <point x="148" y="-12" type="curve" smooth="yes"/>
      <point x="171" y="-12"/>
      <point x="204" y="-6"/>
      <point x="221" y="0" type="curve"/>
      <point x="233" y="89" type="line"/>
      <point x="200" y="89" type="line" smooth="yes"/>
      <point x="176" y="89"/>
      <point x="164" y="100"/>
      <point x="164" y="122" type="curve" smooth="yes"/>
      <point x="164" y="131"/>
      <point x="206" y="425"/>
      <point x="206" y="425" type="curve"/>
      <point x="281" y="425" type="line"/>
      <point x="295" y="526" type="line"/>
      <point x="219" y="526" type="line"/>
      <point x="241" y="674" type="line"/>
      <point x="141" y="674" type="line"/>
      <point x="101" y="526" type="line"/>
      <point x="48" y="526" type="line"/>
      <point x="34" y="425" type="line"/>
      <point x="87" y="425" type="line"/>
      <point x="87" y="425"/>
      <point x="42" y="121"/>
      <point x="42" y="96" type="curve" smooth="yes"/>
      <point x="42" y="38"/>
      <point x="68" y="-12"/>
    </contour>
  </outline>
</glyph>
<glyph name="z" format="2">
  <advance width="410"/>
  <unicode hex="007A"/>
  <anchor x="229" y="526" name="top"/>
  <outline>
    <contour>
      <point x="-12" y="0" type="line"/>
      <point x="354" y="0" type="line"/>
      <point x="368" y="101" type="line"/>
      <point x="162" y="101" type="line"/>
      <point x="413" y="476" type="line"/>
      <point x="417" y="526" type="line"/>
      <point x="68" y="526" type="line"/>
      <point x="54" y="425" type="line"/>
      <point x="241" y="425" type="line"/>
      <point x="-8" y="51" type="line"/>
    </contour>
  </outline>
</glyph>
<glyph name="softhyphen" format="2">
  <advance width="273"/>
  <unicode hex="00AD"/>
  <outline>
    <contour>
      <point x="13" y="211" type="line"/>
      <point x="254" y="211" type="line"/>
      <point x="271" y="329" type="line"/>
      <point x="30" y="329" type="line"/>
    </contour>
  </outline>
</glyph>
<glyph name="macron" format="2">
  <advance width="273"/>
  <unicode hex="00AF"/>
  <anchor x="121" y="526" name="_top"/>
  <outline>
    <contour>
      <point x="2" y="599" type="line"/>
      <point x="257" y="599" type="line"/>
      <point x="270" y="686" type="line"/>
      <point x="15" y="686" type="line"/>
    </contour>
  </outline>
</glyph>
<glyph name="twosuperior" format="2">
  <advance width="273"/>
  <unicode hex="00B2"/>
  <outline>
    <contour>
      <point x="51" y="434" type="line"/>
      <point x="275" y="434" type="line"/>
      <point x="284" y="499" type="line"/>
      <point x="164" y="499" type="line"/>
      <point x="171" y="515"/>
      <point x="194" y="537"/>
      <point x="217" y="557" type="curve" smooth="yes"/>
      <point x="258" y="592"/>
      <point x="308" y="644"/>
      <point x="308" y="713" type="curve" smooth="yes"/>
      <point x="308" y="765"/>
      <point x="273" y="798"/>
      <point x="210" y="798" type="curve" smooth="yes"/>
      <point x="132" y="798"/>
      <point x="87" y="743"/>
      <point x="87" y="674" type="curve" smooth="yes"/>
      <point x="87" y="667"/>
      <point x="87" y="663"/>
      <point x="87" y="663" type="curve"/>
      <point x="160" y="663" type="line"/>
      <point x="164" y="688" type="line" smooth="yes"/>
      <point x="168" y="713"/>
      <point x="182" y="734"/>
      <point x="205" y="734" type="curve" smooth="yes"/>
      <point x="225" y="734"/>
      <point x="232" y="723"/>
      <point x="232" y="706" type="curve" smooth="yes"/>
      <point x="232" y="672"/>
      <point x="215" y="648"/>
      <point x="155" y="595" type="curve" smooth="yes"/>
      <point x="108" y="553"/>
      <point x="61" y="506"/>
      <point x="53" y="449" type="curve" smooth="yes"/>
    </contour>
  </outline>
</glyph>
<glyph name="threesuperior" format="2">
  <advance width="273"/>
  <unicode hex="00B3"/>
  <outline>
    <contour>
      <point x="162" y="428" type="curve" smooth="yes"/>
      <point x="237" y="428"/>
      <point x="293" y="480"/>
      <point x="293" y="549" type="curve" smooth="yes"/>
      <point x="293" y="582"/>
      <point x="277" y="607"/>
      <point x="249" y="621" type="curve"/>
      <point x="281" y="639"/>
      <point x="311" y="669"/>
      <point x="311" y="720" type="curve" smooth="yes"/>
      <point x="311" y="773"/>
      <point x="271" y="798"/>
      <point x="212" y="798" type="curve" smooth="yes"/>
      <point x="146" y="798"/>
      <point x="95" y="759"/>
      <point x="88" y="702" type="curve" smooth="yes"/>
      <point x="85" y="677" type="line"/>
      <point x="159" y="677" type="line"/>
      <point x="162" y="697" type="line" smooth="yes"/>
      <point x="165" y="720"/>
      <point x="182" y="736"/>
      <point x="204" y="736" type="curve" smooth="yes"/>
      <point x="219" y="736"/>
      <point x="235" y="729"/>
      <point x="235" y="707" type="curve" smooth="yes"/>
      <point x="235" y="676"/>
      <point x="214" y="650"/>
      <point x="189" y="650" type="curve" smooth="yes"/>
      <point x="158" y="650" type="line"/>
      <point x="149" y="585" type="line"/>
      <point x="179" y="585" type="line" smooth="yes"/>
      <point x="204" y="585"/>
      <point x="219" y="569"/>
      <point x="219" y="546" type="curve" smooth="yes"/>
      <point x="219" y="515"/>
      <point x="196" y="491"/>
      <point x="167" y="491" type="curve" smooth="yes"/>
      <point x="143" y="491"/>
      <point x="129" y="508"/>
      <point x="133" y="534" type="curve" smooth="yes"/>
      <point x="135" y="547" type="line"/>
      <point x="60" y="547" type="line"/>
      <point x="58" y="536" type="line" smooth="yes"/>
      <point x="46" y="470"/>
      <point x="82" y="428"/>
    </contour>
  </outline>
</glyph>
<glyph name="acute" format="2">
  <advance width="273"/>
  <unicode hex="00B4"/>
  <anchor x="193" y="526" name="_top"/>
  <outline>
    <contour>
      <point x="140" y="591" type="line"/>
      <point x="239" y="591" type="line"/>
      <point x="347" y="720" type="line"/>
      <point x="346" y="723" type="line"/>
      <point x="226" y="723" type="line"/>
    </contour>
  </outline>
</glyph>
<glyph name="onesuperior" format="2">
  <advance width="273"/>
  <unicode hex="00B9"/>
  <outline>
    <contour>
      <point x="67" y="433" type="line"/>
      <point x="278" y="433" type="line"/>
      <point x="288" y="502" type="line"/>
      <point x="222" y="502" type="line"/>
      <point x="262" y="786" type="line"/>
      <point x="218" y="786" type="line"/>
      <point x="185" y="766"/>
      <point x="147" y="752"/>
      <point x="107" y="746" type="curve"/>
      <point x="100" y="697" type="line"/>
      <point x="173" y="697" type="line"/>
      <point x="146" y="502" type="line"/>
      <point x="77" y="502" type="line"/>
    </contour>
  </outline>
</glyph>
<glyph name="AE" format="2">
  <advance width="820"/>
  <unicode hex="00C6"/>
  <anchor x="424" y="686" name="top"/>
  <outline>
    <contour>
      <point x="-52" y="0" type="line"/>
      <point x="78" y="0" type="line"/>
      <point x="145" y="135" type="line"/>
      <point x="385" y="135" type="line"/>
      <point x="397" y="0" type="line"/>
      <point x="741" y="0" type="line"/>
      <point x="757" y="114" type="line"/>
      <point x="514" y="114" type="line"/>
      <point x="496" y="294" type="line"/>
      <point x="733" y="294" type="line"/>
      <point x="749" y="408" type="line"/>
      <point x="485" y="408" type="line"/>
      <point x="468" y="572" type="line"/>
      <point x="815" y="572" type="line"/>
      <point x="831" y="686" type="line"/>
      <point x="303" y="686" type="line"/>
    </contour>
    <contour>
      <point x="201" y="249" type="line"/>
      <point x="295" y="437" type="line"/>
      <point x="319" y="485"/>
      <point x="341" y="570"/>
      <point x="341" y="570" type="curve"/>
      <point x="345" y="570" type="line"/>
      <point x="347" y="543"/>
      <point x="350" y="515"/>
      <point x="352" y="488" type="curve"/>
      <point x="374" y="249" type="line"/>
    </contour>
  </outline>
</glyph>
<glyph name="Oslash" format="2">
  <advance width="638"/>
  <unicode hex="00D8"/>
  <anchor x="282" y="0" name="bottom"/>
  <anchor x="383" y="686" name="top"/>
  <outline>
    <contour>
      <point x="45" y="-37" type="line"/>
      <point x="129" y="-37" type="line"/>
      <point x="623" y="723" type="line"/>
      <point x="539" y="723" type="line"/>
    </contour>
    <component base="O"/>
  </outline>
</glyph>
<glyph name="Dcroat" format="2">
  <advance width="592"/>
  <unicode hex="0110"/>
  <outline>
    <contour>
      <point x="28" y="0" type="line"/>
      <point x="264" y="0" type="line" smooth="yes"/>
      <point x="491" y="0"/>
      <point x="576" y="240"/>
      <point x="576" y="426" type="curve" smooth="yes"/>
      <point x="576" y="599"/>
      <point x="487" y="686"/>
      <point x="335" y="686" type="curve" smooth="yes"/>
      <point x="124" y="686" type="line"/>
      <point x="83" y="397" type="line"/>
      <point x="34" y="397" type="line"/>
      <point x="23" y="312" type="line"/>
      <point x="71" y="312" type="line"/>
    </contour>
    <contour>
      <point x="171" y="114" type="line"/>
      <point x="198" y="312" type="line"/>
      <point x="322" y="312" type="line"/>
      <point x="334" y="397" type="line"/>
      <point x="210" y="397" type="line"/>
      <point x="235" y="572" type="line"/>
      <point x="317" y="572" type="line" smooth="yes"/>
      <point x="398" y="572"/>
      <point x="447" y="520"/>
      <point x="447" y="417" type="curve" smooth="yes"/>
      <point x="447" y="297"/>
      <point x="406" y="114"/>
      <point x="253" y="114" type="curve" smooth="yes"/>
    </contour>
  </outline>
</glyph>
<glyph name="hbar" format="2">
  <advance width="501"/>
  <unicode hex="0127"/>
  <outline>
    <contour>
      <point x="46" y="593" type="line"/>
      <point x="352" y="593" type="line"/>
      <point x="362" y="661" type="line"/>
      <point x="56" y="661" type="line"/>
    </contour>
    <component base="h"/>
  </outline>
</glyph>
<glyph name="idotless" format="2">
  <advance width="228"/>
  <unicode hex="0131"/>
  <anchor x="77" y="0" name="bottom"/>
  <anchor x="129" y="0" name="ogonek"/>
  <anchor x="154" y="526" name="top"/>
  <outline>
    <contour>
      <point x="23" y="0" type="line"/>
      <point x="142" y="0" type="line"/>
      <point x="215" y="526" type="line"/>
      <point x="96" y="526" type="line"/>
    </contour>
  </outline>
</glyph>
<glyph name="Lslash" format="2">
  <advance width="501"/>
  <unicode hex="0141"/>
  <outline>
    <contour>
      <point x="28" y="0" type="line"/>
      <point x="442" y="0" type="line"/>
      <point x="459" y="120" type="line"/>
      <point x="172" y="120" type="line"/>
      <point x="201" y="332" type="line"/>
      <point x="348" y="433" type="line"/>
      <point x="362" y="541" type="line"/>
      <point x="216" y="440" type="line"/>
      <point x="251" y="686" type="line"/>
      <point x="124" y="686" type="line"/>
      <point x="78" y="359" type="line"/>
      <point x="4" y="302" type="line"/>
      <point x="-9" y="196" type="line"/>
      <point x="63" y="252" type="line"/>
    </contour>
  </outline>
</glyph>
<glyph name="lslash" format="2">
  <advance width="228"/>
  <unicode hex="0142"/>
  <outline>
    <contour>
      <point x="-22" y="172" type="line"/>
      <point x="277" y="407" type="line"/>
      <point x="291" y="514" type="line"/>
      <point x="-9" y="278" type="line"/>
    </contour>
    <component base="l"/>
  </outline>
</glyph>
<glyph name="OE" format="2">
  <advance width="820"/>
  <unicode hex="0152"/>
  <anchor x="410" y="686" name="top"/>
  <outline>
    <contour>
      <point x="225" y="-12" type="curve" smooth="yes"/>
      <point x="285" y="-12"/>
      <point x="339" y="11"/>
      <point x="384" y="61" type="curve"/>
      <point x="375" y="0" type="line"/>
      <point x="757" y="0" type="line"/>
      <point x="772" y="114" type="line"/>
      <point x="517" y="114" type="line"/>
      <point x="543" y="294" type="line"/>
      <point x="748" y="294" type="line"/>
      <point x="764" y="408" type="line"/>
      <point x="559" y="408" type="line"/>
      <point x="582" y="572" type="line"/>
      <point x="830" y="572" type="line"/>
      <point x="846" y="686" type="line"/>
      <point x="471" y="686" type="line"/>
      <point x="462" y="624" type="line"/>
      <point x="428" y="674"/>
      <point x="375" y="698"/>
      <point x="308" y="698" type="curve" smooth="yes"/>
      <point x="98" y="698"/>
      <point x="40" y="397"/>
      <point x="40" y="232" type="curve" smooth="yes"/>
      <point x="40" y="66"/>
      <point x="109" y="-12"/>
    </contour>
    <contour>
      <point x="266" y="98" type="curve" smooth="yes"/>
      <point x="202" y="98"/>
      <point x="169" y="138"/>
      <point x="169" y="233" type="curve" smooth="yes"/>
      <point x="169" y="380"/>
      <point x="206" y="588"/>
      <point x="327" y="588" type="curve" smooth="yes"/>
      <point x="395" y="588"/>
      <point x="432" y="551"/>
      <point x="432" y="453" type="curve" smooth="yes"/>
      <point x="432" y="301"/>
      <point x="395" y="98"/>
    </contour>
  </outline>
</glyph>
<glyph name="Schwa" format="2">
  <advance width="600"/>
  <unicode hex="018F"/>
  <outline>
    <contour>
      <point x="268" y="-12" type="curve" smooth="yes"/>
      <point x="468" y="-12"/>
      <point x="577" y="145"/>
      <point x="577" y="452" type="curve" smooth="yes"/>
      <point x="577" y="610"/>
      <point x="493" y="698"/>
      <point x="349" y="698" type="curve" smooth="yes"/>
      <point x="189" y="698"/>
      <point x="90" y="606"/>
      <point x="67" y="442" type="curve"/>
      <point x="189" y="442" type="line"/>
      <point x="202" y="537"/>
      <point x="254" y="590"/>
      <point x="335" y="590" type="curve" smooth="yes"/>
      <point x="423" y="590"/>
      <point x="461" y="542"/>
      <point x="443" y="382" type="curve"/>
      <point x="58" y="382" type="line"/>
      <point x="53" y="343" type="line" smooth="yes"/>
      <point x="24" y="115"/>
      <point x="92" y="-12"/>
    </contour>
    <contour>
      <point x="280" y="96" type="curve" smooth="yes"/>
      <point x="195" y="96"/>
      <point x="155" y="155"/>
      <point x="172" y="279" type="curve"/>
      <point x="427" y="279" type="line"/>
      <point x="413" y="162"/>
      <point x="365" y="96"/>
    </contour>
  </outline>
</glyph>
<glyph name="Fhook" format="2">
  <advance width="501"/>
  <unicode hex="0191"/>
  <outline>
    <contour>
      <point x="5" y="-182" type="curve" smooth="yes"/>
      <point x="102" y="-182"/>
      <point x="140" y="-114"/>
      <point x="149" y="-48" type="curve" smooth="yes"/>
      <point x="195" y="285" type="line"/>
      <point x="427" y="285" type="line"/>
      <point x="443" y="399" type="line"/>
      <point x="211" y="399" type="line"/>
      <point x="235" y="572" type="line"/>
      <point x="508" y="572" type="line"/>
      <point x="523" y="686" type="line"/>
      <point x="125" y="686" type="line"/>
      <point x="23" y="-40" type="line" smooth="yes"/>
      <point x="19" y="-69"/>
      <point x="0" y="-85"/>
      <point x="-29" y="-85" type="curve" smooth="yes"/>
      <point x="-78" y="-85" type="line"/>
      <point x="-92" y="-167" type="line"/>
      <point x="-72" y="-175"/>
      <point x="-25" y="-182"/>
    </contour>
  </outline>
</glyph>
<glyph name="Nhookleft" format="2">
  <advance width="592"/>
  <unicode hex="019D"/>
  <outline>
    <contour>
      <point x="-11" y="-182" type="curve" smooth="yes"/>
      <point x="85" y="-182"/>
      <point x="123" y="-118"/>
      <point x="132" y="-55" type="curve" smooth="yes"/>
      <point x="193" y="382" type="line" smooth="yes"/>
      <point x="195" y="395"/>
      <point x="198" y="422"/>
      <point x="199" y="439" type="curve"/>
      <point x="203" y="442" type="line"/>
      <point x="210" y="421"/>
      <point x="221" y="388"/>
      <point x="225" y="378" type="curve" smooth="yes"/>
      <point x="382" y="0" type="line"/>
      <point x="495" y="0" type="line"/>
      <point x="591" y="686" type="line"/>
      <point x="478" y="686" type="line"/>
      <point x="425" y="304" type="line" smooth="yes"/>
      <point x="424" y="296"/>
      <point x="420" y="267"/>
      <point x="418" y="247" type="curve"/>
      <point x="415" y="244" type="line"/>
      <point x="409" y="264"/>
      <point x="398" y="296"/>
      <point x="393" y="308" type="curve" smooth="yes"/>
      <point x="236" y="686" type="line"/>
      <point x="124" y="686" type="line"/>
      <point x="20" y="-53" type="line" smooth="yes"/>
      <point x="16" y="-83"/>
      <point x="-1" y="-100"/>
      <point x="-31" y="-100" type="curve" smooth="yes"/>
      <point x="-77" y="-100" type="line"/>
      <point x="-87" y="-169" type="line"/>
      <point x="-69" y="-175"/>
      <point x="-38" y="-182"/>
    </contour>
  </outline>
</glyph>
<glyph name="Aringacute" format="2">
  <advance width="592"/>
  <unicode hex="01FA"/>
  <outline>
    <contour>
      <point x="-33" y="0" type="line"/>
      <point x="95" y="0" type="line"/>
      <point x="154" y="135" type="line"/>
      <point x="399" y="135" type="line"/>
      <point x="421" y="0" type="line"/>
      <point x="551" y="0" type="line"/>
      <point x="432" y="664" type="line"/>
      <point x="448" y="680"/>
      <point x="457" y="703"/>
      <point x="457" y="727" type="curve" smooth="yes"/>
      <point x="457" y="777"/>
      <point x="415" y="820"/>
      <point x="362" y="820" type="curve" smooth="yes"/>
      <point x="308" y="820"/>
      <point x="265" y="778"/>
      <point x="265" y="727" type="curve" smooth="yes"/>
      <point x="265" y="709"/>
      <point x="270" y="694"/>
      <point x="278" y="680" type="curve"/>
    </contour>
    <contour>
      <point x="205" y="249" type="line"/>
      <point x="288" y="437" type="line" smooth="yes"/>
      <point x="310" y="486"/>
      <point x="334" y="570"/>
      <point x="334" y="570" type="curve"/>
      <point x="338" y="570" type="line"/>
      <point x="338" y="570"/>
      <point x="342" y="489"/>
      <point x="350" y="437" type="curve"/>
      <point x="380" y="249" type="line"/>
    </contour>
    <contour>
      <point x="362" y="682" type="curve" smooth="yes"/>
      <point x="335" y="682"/>
      <point x="315" y="701"/>
      <point x="315" y="727" type="curve" smooth="yes"/>
      <point x="315" y="752"/>
      <point x="335" y="772"/>
      <point x="362" y="772" type="curve" smooth="yes"/>
      <point x="387" y="772"/>
      <point x="408" y="752"/>
      <point x="408" y="727" type="curve" smooth="yes"/>
      <point x="408" y="701"/>
      <point x="387" y="682"/>
    </contour>
    <contour>
      <point x="319" y="848" type="line"/>
      <point x="418" y="848" type="line"/>
      <point x="511" y="954" type="line"/>
      <point x="510" y="957" type="line"/>
      <point x="390" y="957" type="line"/>
    </contour>
  </outline>
</glyph>
<glyph name="nhookleft" format="2">
  <advance width="501"/>
  <unicode hex="0272"/>
  <outline>
    <contour>
      <point x="-90" y="-170" type="line"/>
      <point x="-71" y="-176"/>
      <point x="-34" y="-182"/>
      <point x="-4" y="-182" type="curve" smooth="yes"/>
      <point x="90" y="-182"/>
      <point x="126" y="-111"/>
      <point x="136" y="-41" type="curve"/>
      <point x="185" y="316" type="line" smooth="yes"/>
      <point x="195" y="389"/>
      <point x="237" y="429"/>
      <point x="283" y="429" type="curve" smooth="yes"/>
      <point x="324" y="429"/>
      <point x="347" y="409"/>
      <point x="340" y="353" type="curve" smooth="yes"/>
      <point x="294" y="0" type="line"/>
      <point x="413" y="0" type="line"/>
      <point x="460" y="383" type="line" smooth="yes"/>
      <point x="473" y="486"/>
      <point x="420" y="538"/>
      <point x="336" y="538" type="curve" smooth="yes"/>
      <point x="268" y="538"/>
      <point x="224" y="502"/>
      <point x="193" y="456" type="curve"/>
      <point x="193" y="526" type="line"/>
      <point x="96" y="526" type="line"/>
      <point x="18" y="-33" type="line"/>
      <point x="14" y="-64"/>
      <point x="-4" y="-81"/>
      <point x="-35" y="-81" type="curve" smooth="yes"/>
      <point x="-78" y="-81" type="line"/>
    </contour>
  </outline>
</glyph>
<glyph name="apostrophemod" format="2">
  <advance width="139"/>
  <unicode hex="02BC"/>
  <outline>
    <contour>
      <point x="33" y="496" type="line"/>
      <point x="105" y="496" type="line"/>
      <point x="189" y="620" type="line"/>
      <point x="204" y="723" type="line"/>
      <point x="65" y="723" type="line"/>
      <point x="49" y="608" type="line"/>
      <point x="104" y="608" type="line"/>
    </contour>
  </outline>
</glyph>
<glyph name="caron" format="2">
  <advance width="273"/>
  <unicode hex="02C7"/>
  <anchor x="117" y="526" name="_top"/>
  <outline>
    <contour>
      <point x="76" y="588" type="line"/>
      <point x="174" y="588" type="line"/>
      <point x="278" y="723" type="line"/>
      <point x="184" y="723" type="line"/>
      <point x="134" y="654" type="line"/>
      <point x="99" y="723" type="line"/>
      <point x="9" y="723" type="line"/>
    </contour>
  </outline>
</glyph>
<glyph name="uni02C9" format="2">
  <advance width="273"/>
  <unicode hex="02C9"/>
  <outline>
    <contour>
      <point x="57" y="600" type="line"/>
      <point x="311" y="600" type="line"/>
      <point x="323" y="687" type="line"/>
      <point x="69" y="687" type="line"/>
    </contour>
  </outline>
</glyph>
<glyph name="breve" format="2">
  <advance width="273"/>
  <unicode hex="02D8"/>
  <anchor x="113" y="526" name="_top"/>
  <outline>
    <contour>
      <point x="131" y="616" type="curve" smooth="yes"/>
      <point x="211" y="616"/>
      <point x="268" y="673"/>
      <point x="275" y="723" type="curve"/>
      <point x="201" y="723" type="line"/>
      <point x="197" y="709"/>
      <point x="170" y="690"/>
      <point x="136" y="690" type="curve" smooth="yes"/>
      <point x="103" y="690"/>
      <point x="83" y="709"/>
      <point x="82" y="723" type="curve"/>
      <point x="8" y="723" type="line"/>
      <point x="7" y="719"/>
      <point x="7" y="716"/>
      <point x="7" y="712" type="curve" smooth="yes"/>
      <point x="7" y="665"/>
      <point x="52" y="616"/>
    </contour>
  </outline>
</glyph>
<glyph name="dotaccent" format="2">
  <advance width="273"/>
  <unicode hex="02D9"/>
  <anchor x="116" y="526" name="_top"/>
  <outline>
    <contour>
      <point x="74" y="608" type="line"/>
      <point x="181" y="608" type="line"/>
      <point x="198" y="723" type="line"/>
      <point x="91" y="723" type="line"/>
    </contour>
  </outline>
</glyph>
<glyph name="acutecomb" format="2">
  <unicode hex="0301"/>
  <anchor x="106" y="526" name="_top"/>
  <anchor x="133" y="723" name="top"/>
  <outline>
    <contour>
      <point x="46" y="591" type="line"/>
      <point x="145" y="591" type="line"/>
      <point x="271" y="720" type="line"/>
      <point x="270" y="723" type="line"/>
      <point x="150" y="723" type="line"/>
    </contour>
  </outline>
</glyph>
<glyph name="circumflexcomb" format="2">
  <unicode hex="0302"/>
  <anchor x="172" y="526" name="_top"/>
  <anchor x="194" y="693" name="top"/>
  <outline>
    <contour>
      <point x="46" y="588" type="line"/>
      <point x="138" y="588" type="line"/>
      <point x="192" y="657" type="line"/>
      <point x="227" y="588" type="line"/>
      <point x="315" y="588" type="line"/>
      <point x="248" y="723" type="line"/>
      <point x="150" y="723" type="line"/>
    </contour>
  </outline>
</glyph>
<glyph name="tildecomb" format="2">
  <unicode hex="0303"/>
  <anchor x="206" y="526" name="_top"/>
  <anchor x="234" y="723" name="top"/>
  <outline>
    <contour>
      <point x="48" y="601" type="curve"/>
      <point x="114" y="601" type="line"/>
      <point x="120" y="622"/>
      <point x="140" y="638"/>
      <point x="159" y="638" type="curve" smooth="yes"/>
      <point x="194" y="638"/>
      <point x="227" y="601"/>
      <point x="285" y="601" type="curve" smooth="yes"/>
      <point x="342" y="601"/>
      <point x="392" y="653"/>
      <point x="402" y="723" type="curve"/>
      <point x="336" y="723" type="line"/>
      <point x="330" y="702"/>
      <point x="311" y="686"/>
      <point x="291" y="686" type="curve" smooth="yes"/>
      <point x="256" y="686"/>
      <point x="213" y="723"/>
      <point x="164" y="723" type="curve" smooth="yes"/>
      <point x="108" y="723"/>
      <point x="58" y="671"/>
    </contour>
  </outline>
</glyph>
<glyph name="macroncomb" format="2">
  <unicode hex="0304"/>
  <anchor x="165" y="526" name="_top"/>
  <anchor x="187" y="686" name="top"/>
  <outline>
    <contour>
      <point x="47" y="599" type="line"/>
      <point x="302" y="599" type="line"/>
      <point x="314" y="686" type="line"/>
      <point x="59" y="686" type="line"/>
    </contour>
  </outline>
</glyph>
<glyph name="brevecomb" format="2">
  <unicode hex="0306"/>
  <anchor x="171" y="526" name="_top"/>
  <anchor x="189" y="650" name="top"/>
  <outline>
    <contour>
      <point x="176" y="576" type="curve" smooth="yes"/>
      <point x="259" y="576"/>
      <point x="318" y="633"/>
      <point x="326" y="683" type="curve"/>
      <point x="250" y="683" type="line"/>
      <point x="246" y="669"/>
      <point x="219" y="650"/>
      <point x="185" y="650" type="curve" smooth="yes"/>
      <point x="152" y="650"/>
      <point x="132" y="669"/>
      <point x="131" y="683" type="curve"/>
      <point x="59" y="683" type="line"/>
      <point x="51" y="633"/>
      <point x="94" y="576"/>
    </contour>
  </outline>
</glyph>
<glyph name="dotaccentcomb" format="2">
  <unicode hex="0307"/>
  <anchor x="98" y="526" name="_top"/>
  <anchor x="126" y="723" name="top"/>
  <outline>
    <contour>
      <point x="49" y="608" type="line"/>
      <point x="170" y="608" type="line"/>
      <point x="186" y="723" type="line"/>
      <point x="65" y="723" type="line"/>
    </contour>
  </outline>
</glyph>
<glyph name="dieresiscomb" format="2">
  <unicode hex="0308"/>
  <anchor x="175" y="526" name="_top"/>
  <anchor x="203" y="723" name="top"/>
  <outline>
    <contour>
      <point x="224" y="614" type="line"/>
      <point x="324" y="614" type="line"/>
      <point x="340" y="723" type="line"/>
      <point x="240" y="723" type="line"/>
    </contour>
    <contour>
      <point x="49" y="614" type="line"/>
      <point x="149" y="614" type="line"/>
      <point x="165" y="723" type="line"/>
      <point x="65" y="723" type="line"/>
    </contour>
  </outline>
</glyph>
<glyph name="ringcomb" format="2">
  <unicode hex="030A"/>
  <anchor x="133" y="526" name="_top"/>
  <anchor x="160" y="723" name="top"/>
  <outline>
    <contour>
      <point x="137" y="561" type="curve" smooth="yes"/>
      <point x="200" y="561"/>
      <point x="248" y="608"/>
      <point x="248" y="670" type="curve" smooth="yes"/>
      <point x="248" y="717"/>
      <point x="212" y="753"/>
      <point x="164" y="753" type="curve" smooth="yes"/>
      <point x="101" y="753"/>
      <point x="54" y="706"/>
      <point x="54" y="643" type="curve" smooth="yes"/>
      <point x="54" y="596"/>
      <point x="90" y="561"/>
    </contour>
    <contour>
      <point x="144" y="611" type="curve" smooth="yes"/>
      <point x="121" y="611"/>
      <point x="104" y="628"/>
      <point x="104" y="650" type="curve" smooth="yes"/>
      <point x="104" y="680"/>
      <point x="127" y="703"/>
      <point x="157" y="703" type="curve" smooth="yes"/>
      <point x="180" y="703"/>
      <point x="197" y="686"/>
      <point x="197" y="664" type="curve" smooth="yes"/>
      <point x="197" y="634"/>
      <point x="174" y="611"/>
    </contour>
  </outline>
</glyph>
<glyph name="hungarumlautcomb" format="2">
  <unicode hex="030B"/>
  <anchor x="150" y="526" name="_top"/>
  <anchor x="177" y="723" name="top"/>
  <outline>
    <contour>
      <point x="186" y="591" type="line"/>
      <point x="265" y="591" type="line"/>
      <point x="367" y="720" type="line"/>
      <point x="366" y="723" type="line"/>
      <point x="266" y="723" type="line"/>
    </contour>
    <contour>
      <point x="46" y="591" type="line"/>
      <point x="125" y="591" type="line"/>
      <point x="227" y="720" type="line"/>
      <point x="226" y="723" type="line"/>
      <point x="126" y="723" type="line"/>
    </contour>
  </outline>
</glyph>
<glyph name="caroncomb" format="2">
  <unicode hex="030C"/>
  <anchor x="173" y="526" name="_top"/>
  <anchor x="200" y="723" name="top"/>
  <outline>
    <contour>
      <point x="133" y="588" type="line"/>
      <point x="231" y="588" type="line"/>
      <point x="334" y="723" type="line"/>
      <point x="242" y="723" type="line"/>
      <point x="189" y="654" type="line"/>
      <point x="153" y="723" type="line"/>
      <point x="65" y="723" type="line"/>
    </contour>
  </outline>
</glyph>
<glyph name="dblgravecomb" format="2">
  <unicode hex="030F"/>
  <anchor x="217" y="526" name="_top"/>
  <anchor x="244" y="723" name="top"/>
  <outline>
    <contour>
      <point x="130" y="591" type="line"/>
      <point x="211" y="591" type="line"/>
      <point x="167" y="723" type="line"/>
      <point x="65" y="723" type="line"/>
      <point x="64" y="720" type="line"/>
    </contour>
    <contour>
      <point x="272" y="591" type="line"/>
      <point x="349" y="591" type="line"/>
      <point x="305" y="723" type="line"/>
      <point x="207" y="723" type="line"/>
      <point x="206" y="720" type="line"/>
    </contour>
  </outline>
</glyph>
<glyph name="breveinvertedcomb" format="2">
  <unicode hex="0311"/>
  <anchor x="173" y="526" name="_top"/>
  <anchor x="200" y="703" name="top"/>
  <outline>
    <contour>
      <point x="50" y="596" type="curve"/>
      <point x="126" y="596" type="line"/>
      <point x="131" y="610"/>
      <point x="157" y="629"/>
      <point x="190" y="629" type="curve" smooth="yes"/>
      <point x="224" y="629"/>
      <point x="245" y="610"/>
      <point x="245" y="596" type="curve"/>
      <point x="317" y="596" type="line"/>
      <point x="325" y="646"/>
      <point x="282" y="703"/>
      <point x="199" y="703" type="curve" smooth="yes"/>
      <point x="117" y="703"/>
      <point x="58" y="646"/>
    </contour>
  </outline>
</glyph>
<glyph name="commaturnedabovecomb" format="2">
  <unicode hex="0312"/>
  <anchor x="101" y="526" name="_top"/>
  <anchor x="123" y="686" name="top"/>
  <outline>
    <contour>
      <point x="49" y="608" type="line"/>
      <point x="170" y="608" type="line"/>
      <point x="186" y="719" type="line"/>
      <point x="153" y="719" type="line"/>
      <point x="202" y="804" type="line"/>
      <point x="123" y="804" type="line"/>
      <point x="63" y="708" type="line"/>
    </contour>
  </outline>
</glyph>
<glyph name="horncomb" format="2">
  <unicode hex="031B"/>
  <anchor x="37" y="526" name="_topright"/>
  <anchor x="53" y="640" name="topright"/>
  <outline>
    <contour>
      <point x="29" y="466" type="line"/>
      <point x="109" y="466" type="line" smooth="yes"/>
      <point x="193" y="466"/>
      <point x="246" y="511"/>
      <point x="255" y="579" type="curve" smooth="yes"/>
      <point x="263" y="640" type="line"/>
      <point x="178" y="640" type="line"/>
      <point x="170" y="579" type="line" smooth="yes"/>
      <point x="164" y="541"/>
      <point x="144" y="526"/>
      <point x="97" y="526" type="curve" smooth="yes"/>
      <point x="37" y="526" type="line"/>
    </contour>
  </outline>
</glyph>
<glyph name="dotbelowcomb" format="2">
  <unicode hex="0323"/>
  <anchor x="22" y="0" name="_bottom"/>
  <anchor x="-4" y="-182" name="bottom"/>
  <outline>
    <contour>
      <point x="-62" y="-182" type="line"/>
      <point x="55" y="-182" type="line"/>
      <point x="71" y="-67" type="line"/>
      <point x="-46" y="-67" type="line"/>
    </contour>
  </outline>
</glyph>
<glyph name="dieresisbelowcomb" format="2">
  <unicode hex="0324"/>
  <anchor x="101" y="0" name="_bottom"/>
  <anchor x="76" y="-182" name="bottom"/>
  <outline>
    <contour>
      <point x="103" y="-182" type="line"/>
      <point x="213" y="-182" type="line"/>
      <point x="229" y="-67" type="line"/>
      <point x="119" y="-67" type="line"/>
    </contour>
    <contour>
      <point x="-62" y="-182" type="line"/>
      <point x="48" y="-182" type="line"/>
      <point x="64" y="-67" type="line"/>
      <point x="-46" y="-67" type="line"/>
    </contour>
  </outline>
</glyph>
<glyph name="commaaccentcomb" format="2">
  <unicode hex="0326"/>
  <anchor x="19" y="0" name="_bottom"/>
  <anchor x="-6" y="-182" name="bottom"/>
  <outline>
    <contour>
      <point x="-74" y="-263" type="line"/>
      <point x="-9" y="-263" type="line"/>
      <point x="51" y="-167" type="line"/>
      <point x="65" y="-67" type="line"/>
      <point x="-42" y="-67" type="line"/>
      <point x="-58" y="-178" type="line"/>
      <point x="-26" y="-178" type="line"/>
    </contour>
  </outline>
</glyph>
<glyph name="ogonekcomb" format="2">
  <unicode hex="0328"/>
  <anchor x="91" y="0" name="_ogonek"/>
  <outline>
    <contour>
      <point x="32" y="-190" type="curve" smooth="yes"/>
      <point x="54" y="-190"/>
      <point x="78" y="-185"/>
      <point x="103" y="-176" type="curve"/>
      <point x="111" y="-121" type="line"/>
      <point x="99" y="-121" type="line" smooth="yes"/>
      <point x="59" y="-121"/>
      <point x="46" y="-103"/>
      <point x="46" y="-80" type="curve" smooth="yes"/>
      <point x="46" y="-54"/>
      <point x="63" y="-20"/>
      <point x="91" y="0" type="curve"/>
      <point x="90" y="4" type="line"/>
      <point x="12" y="4" type="line"/>
      <point x="-27" y="-30"/>
      <point x="-52" y="-78"/>
      <point x="-52" y="-117" type="curve" smooth="yes"/>
      <point x="-52" y="-166"/>
      <point x="-17" y="-190"/>
    </contour>
  </outline>
</glyph>
<glyph name="brevebelowcomb" format="2">
  <unicode hex="032E"/>
  <anchor x="97" y="0" name="_bottom"/>
  <anchor x="72" y="-182" name="bottom"/>
  <outline>
    <contour>
      <point x="71" y="-174" type="curve" smooth="yes"/>
      <point x="154" y="-174"/>
      <point x="213" y="-117"/>
      <point x="221" y="-67" type="curve"/>
      <point x="144" y="-67" type="line"/>
      <point x="140" y="-81"/>
      <point x="113" y="-100"/>
      <point x="79" y="-100" type="curve" smooth="yes"/>
      <point x="46" y="-100"/>
      <point x="26" y="-81"/>
      <point x="25" y="-67" type="curve"/>
      <point x="-46" y="-67" type="line"/>
      <point x="-54" y="-117"/>
      <point x="-11" y="-174"/>
    </contour>
  </outline>
</glyph>
<glyph name="strokelongcomb" format="2">
  <unicode hex="0336"/>
  <anchor x="302" y="370" name="_center"/>
  <outline>
    <contour>
      <point x="10" y="324" type="line"/>
      <point x="583" y="324" type="line"/>
      <point x="595" y="416" type="line"/>
      <point x="22" y="416" type="line"/>
    </contour>
  </outline>
</glyph>
<glyph name="slashshortcomb" format="2">
  <unicode hex="0337"/>
  <anchor x="104" y="351" name="_center"/>
  <outline>
    <contour>
      <point x="-7" y="211" type="line"/>
      <point x="201" y="399" type="line"/>
      <point x="214" y="492" type="line"/>
      <point x="6" y="304" type="line"/>
    </contour>
  </outline>
</glyph>
<glyph name="slashlongcomb" format="2">
  <unicode hex="0338"/>
  <anchor x="174" y="263" name="_center"/>
  <outline>
    <contour>
      <point x="-41" y="-32" type="line"/>
      <point x="34" y="-32" type="line"/>
      <point x="389" y="558" type="line"/>
      <point x="314" y="558" type="line"/>
    </contour>
  </outline>
</glyph>
<glyph name="mu" format="2">
  <advance width="501"/>
  <unicode hex="03BC"/>
  <outline>
    <contour>
      <point x="-7" y="-173" type="line"/>
      <point x="113" y="-173" type="line"/>
      <point x="126" y="-94"/>
      <point x="132" y="3"/>
      <point x="125" y="54" type="curve"/>
      <point x="97" y="54" type="line"/>
      <point x="96" y="8"/>
      <point x="128" y="-12"/>
      <point x="168" y="-12" type="curve" smooth="yes"/>
      <point x="215" y="-12"/>
      <point x="274" y="16"/>
      <point x="305" y="65" type="curve"/>
      <point x="308" y="0" type="line"/>
      <point x="405" y="0" type="line"/>
      <point x="479" y="526" type="line"/>
      <point x="362" y="526" type="line"/>
      <point x="318" y="210" type="line" smooth="yes"/>
      <point x="308" y="137"/>
      <point x="266" y="97"/>
      <point x="218" y="97" type="curve" smooth="yes"/>
      <point x="172" y="97"/>
      <point x="155" y="126"/>
      <point x="164" y="190" type="curve" smooth="yes"/>
      <point x="211" y="526" type="line"/>
      <point x="91" y="526" type="line"/>
    </contour>
  </outline>
</glyph>
<glyph name="Germandbls" format="2">
  <advance width="611"/>
  <unicode hex="1E9E"/>
  <outline>
    <contour>
      <point x="18" y="0" type="line"/>
      <point x="143" y="0" type="line"/>
      <point x="203" y="424" type="line" smooth="yes"/>
      <point x="219" y="536"/>
      <point x="272" y="592"/>
      <point x="363" y="592" type="curve" smooth="yes"/>
      <point x="436" y="592"/>
      <point x="477" y="563"/>
      <point x="477" y="511" type="curve" smooth="yes"/>
      <point x="477" y="435"/>
      <point x="428" y="386"/>
      <point x="353" y="386" type="curve" smooth="yes"/>
      <point x="267" y="386" type="line"/>
      <point x="254" y="293" type="line"/>
      <point x="343" y="293" type="line" smooth="yes"/>
      <point x="429" y="293"/>
      <point x="469" y="258"/>
      <point x="469" y="207" type="curve" smooth="yes"/>
      <point x="469" y="139"/>
      <point x="424" y="93"/>
      <point x="355" y="93" type="curve" smooth="yes"/>
      <point x="226" y="93" type="line"/>
      <point x="213" y="0" type="line"/>
      <point x="355" y="0" type="line" smooth="yes"/>
      <point x="494" y="0"/>
      <point x="596" y="92"/>
      <point x="596" y="215" type="curve" smooth="yes"/>
      <point x="596" y="283"/>
      <point x="558" y="329"/>
      <point x="492" y="347" type="curve"/>
      <point x="492" y="351" type="line"/>
      <point x="558" y="376"/>
      <point x="607" y="454"/>
      <point x="607" y="532" type="curve" smooth="yes"/>
      <point x="607" y="633"/>
      <point x="525" y="698"/>
      <point x="379" y="698" type="curve" smooth="yes"/>
      <point x="205" y="698"/>
      <point x="104" y="606"/>
      <point x="78" y="424" type="curve" smooth="yes"/>
    </contour>
  </outline>
</glyph>
<glyph name="emdash" format="2">
  <advance width="820"/>
  <unicode hex="2014"/>
  <outline>
    <contour>
      <point x="-4" y="221" type="line"/>
      <point x="814" y="221" type="line"/>
      <point x="827" y="319" type="line"/>
      <point x="8" y="319" type="line"/>
    </contour>
  </outline>
</glyph>
<glyph name="horizontalbar" format="2">
  <advance width="820"/>
  <unicode hex="2015"/>
  <outline>
    <contour>
      <point x="95" y="223" type="line"/>
      <point x="714" y="223" type="line"/>
      <point x="727" y="318" type="line"/>
      <point x="108" y="318" type="line"/>
    </contour>
  </outline>
</glyph>
<glyph name="underscoredbl" format="2">
  <advance width="500"/>
  <unicode hex="2017"/>
  <outline>
    <contour>
      <point x="-35" y="-149" type="line"/>
      <point x="420" y="-149" type="line"/>
      <point x="430" y="-71" type="line"/>
      <point x="-25" y="-71" type="line"/>
    </contour>
    <contour>
      <point x="-51" y="-263" type="line"/>
      <point x="404" y="-263" type="line"/>
      <point x="414" y="-185" type="line"/>
      <point x="-41" y="-185" type="line"/>
    </contour>
  </outline>
</glyph>
<glyph name="fraction" format="2">
  <advance width="137"/>
  <unicode hex="2044"/>
  <outline>
    <contour>
      <point x="-191" y="-12" type="line"/>
      <point x="-124" y="-12" type="line"/>
      <point x="369" y="698" type="line"/>
      <point x="303" y="698" type="line"/>
    </contour>
  </outline>
</glyph>
<glyph name="commercialMinusSign" format="2">
  <advance width="600"/>
  <unicode hex="2052"/>
  <outline>
    <contour>
      <point x="19" y="-12" type="line"/>
      <point x="88" y="-12" type="line"/>
      <point x="581" y="698" type="line"/>
      <point x="513" y="698" type="line"/>
    </contour>
    <contour>
      <point x="108" y="551" type="line"/>
      <point x="233" y="551" type="line"/>
      <point x="252" y="686" type="line"/>
      <point x="127" y="686" type="line"/>
    </contour>
    <contour>
      <point x="348" y="0" type="line"/>
      <point x="473" y="0" type="line"/>
      <point x="492" y="135" type="line"/>
      <point x="367" y="135" type="line"/>
    </contour>
  </outline>
</glyph>
<glyph name="zerosuperior" format="2">
  <advance width="273"/>
  <unicode hex="2070"/>
  <outline>
    <contour>
      <point x="168" y="428" type="curve" smooth="yes"/>
      <point x="264" y="428"/>
      <point x="309" y="522"/>
      <point x="309" y="691" type="curve" smooth="yes"/>
      <point x="309" y="761"/>
      <point x="272" y="798"/>
      <point x="206" y="798" type="curve" smooth="yes"/>
      <point x="109" y="798"/>
      <point x="63" y="704"/>
      <point x="63" y="534" type="curve" smooth="yes"/>
      <point x="63" y="465"/>
      <point x="100" y="428"/>
    </contour>
    <contour>
      <point x="173" y="496" type="curve" smooth="yes"/>
      <point x="138" y="496"/>
      <point x="135" y="527"/>
      <point x="143" y="589" type="curve" smooth="yes"/>
      <point x="149" y="637" type="line" smooth="yes"/>
      <point x="156" y="695"/>
      <point x="167" y="730"/>
      <point x="200" y="730" type="curve" smooth="yes"/>
      <point x="234" y="730"/>
      <point x="236" y="691"/>
      <point x="229" y="637" type="curve" smooth="yes"/>
      <point x="223" y="589" type="line" smooth="yes"/>
      <point x="215" y="522"/>
      <point x="204" y="496"/>
    </contour>
  </outline>
</glyph>
<glyph name="foursuperior" format="2">
  <advance width="273"/>
  <unicode hex="2074"/>
  <outline>
    <contour>
      <point x="188" y="433" type="line"/>
      <point x="260" y="433" type="line"/>
      <point x="271" y="513" type="line"/>
      <point x="304" y="513" type="line"/>
      <point x="312" y="573" type="line"/>
      <point x="279" y="573" type="line"/>
      <point x="303" y="740" type="line"/>
      <point x="258" y="740" type="line"/>
      <point x="245" y="706"/>
      <point x="233" y="680"/>
      <point x="219" y="654" type="curve"/>
      <point x="207" y="573" type="line"/>
      <point x="133" y="573" type="line"/>
      <point x="165" y="614"/>
      <point x="224" y="710"/>
      <point x="257" y="798" type="curve"/>
      <point x="178" y="798" type="line"/>
      <point x="144" y="707"/>
      <point x="104" y="632"/>
      <point x="59" y="568" type="curve"/>
      <point x="51" y="513" type="line"/>
      <point x="199" y="513" type="line"/>
    </contour>
  </outline>
</glyph>
<glyph name="fivesuperior" format="2">
  <advance width="273"/>
  <unicode hex="2075"/>
  <outline>
    <contour>
      <point x="162" y="428" type="curve" smooth="yes"/>
      <point x="241" y="428"/>
      <point x="296" y="489"/>
      <point x="296" y="579" type="curve" smooth="yes"/>
      <point x="296" y="642"/>
      <point x="258" y="672"/>
      <point x="211" y="672" type="curve" smooth="yes"/>
      <point x="189" y="672"/>
      <point x="176" y="665"/>
      <point x="161" y="657" type="curve"/>
      <point x="176" y="724" type="line"/>
      <point x="299" y="724" type="line"/>
      <point x="308" y="786" type="line"/>
      <point x="120" y="786" type="line"/>
      <point x="80" y="600" type="line"/>
      <point x="145" y="591" type="line"/>
      <point x="159" y="604"/>
      <point x="169" y="612"/>
      <point x="184" y="612" type="curve" smooth="yes"/>
      <point x="207" y="612"/>
      <point x="223" y="598"/>
      <point x="223" y="568" type="curve" smooth="yes"/>
      <point x="223" y="523"/>
      <point x="200" y="488"/>
      <point x="171" y="488" type="curve" smooth="yes"/>
      <point x="147" y="488"/>
      <point x="132" y="510"/>
      <point x="137" y="547" type="curve"/>
      <point x="64" y="547" type="line"/>
      <point x="54" y="473"/>
      <point x="92" y="428"/>
    </contour>
  </outline>
</glyph>
<glyph name="sixsuperior" format="2">
  <advance width="273"/>
  <unicode hex="2076"/>
  <outline>
    <contour>
      <point x="183" y="428" type="curve" smooth="yes"/>
      <point x="253" y="428"/>
      <point x="300" y="488"/>
      <point x="300" y="571" type="curve" smooth="yes"/>
      <point x="300" y="622"/>
      <point x="274" y="661"/>
      <point x="218" y="661" type="curve" smooth="yes"/>
      <point x="193" y="661"/>
      <point x="171" y="651"/>
      <point x="156" y="636" type="curve"/>
      <point x="166" y="697"/>
      <point x="181" y="735"/>
      <point x="210" y="735" type="curve" smooth="yes"/>
      <point x="233" y="735"/>
      <point x="240" y="715"/>
      <point x="236" y="682" type="curve"/>
      <point x="307" y="682" type="line"/>
      <point x="318" y="759"/>
      <point x="289" y="798"/>
      <point x="219" y="798" type="curve" smooth="yes"/>
      <point x="126" y="798"/>
      <point x="72" y="717"/>
      <point x="72" y="550" type="curve" smooth="yes"/>
      <point x="72" y="476"/>
      <point x="110" y="428"/>
    </contour>
    <contour>
      <point x="183" y="495" type="curve" smooth="yes"/>
      <point x="160" y="495"/>
      <point x="146" y="515"/>
      <point x="146" y="539" type="curve" smooth="yes"/>
      <point x="146" y="576"/>
      <point x="164" y="600"/>
      <point x="192" y="600" type="curve" smooth="yes"/>
      <point x="214" y="600"/>
      <point x="228" y="581"/>
      <point x="228" y="556" type="curve" smooth="yes"/>
      <point x="228" y="519"/>
      <point x="210" y="495"/>
    </contour>
  </outline>
</glyph>
<glyph name="sevensuperior" format="2">
  <advance width="273"/>
  <unicode hex="2077"/>
  <outline>
    <contour>
      <point x="92" y="428" type="curve"/>
      <point x="178" y="428" type="line"/>
      <point x="179" y="442"/>
      <point x="179" y="443"/>
      <point x="181" y="456" type="curve" smooth="yes"/>
      <point x="197" y="563"/>
      <point x="258" y="670"/>
      <point x="315" y="741" type="curve"/>
      <point x="321" y="786" type="line"/>
      <point x="107" y="786" type="line"/>
      <point x="99" y="724" type="line"/>
      <point x="237" y="724" type="line"/>
      <point x="170" y="653"/>
      <point x="109" y="543"/>
    </contour>
  </outline>
</glyph>
<glyph name="eightsuperior" format="2">
  <advance width="273"/>
  <unicode hex="2078"/>
  <outline>
    <contour>
      <point x="165" y="428" type="curve" smooth="yes"/>
      <point x="242" y="428"/>
      <point x="289" y="474"/>
      <point x="289" y="544" type="curve" smooth="yes"/>
      <point x="289" y="577"/>
      <point x="274" y="603"/>
      <point x="247" y="618" type="curve"/>
      <point x="281" y="637"/>
      <point x="302" y="672"/>
      <point x="302" y="713" type="curve" smooth="yes"/>
      <point x="302" y="760"/>
      <point x="268" y="798"/>
      <point x="205" y="798" type="curve" smooth="yes"/>
      <point x="135" y="798"/>
      <point x="89" y="752"/>
      <point x="89" y="686" type="curve" smooth="yes"/>
      <point x="89" y="656"/>
      <point x="100" y="633"/>
      <point x="123" y="618" type="curve"/>
      <point x="81" y="597"/>
      <point x="61" y="559"/>
      <point x="61" y="515" type="curve" smooth="yes"/>
      <point x="61" y="467"/>
      <point x="93" y="428"/>
    </contour>
    <contour>
      <point x="173" y="487" type="curve" smooth="yes"/>
      <point x="151" y="487"/>
      <point x="137" y="502"/>
      <point x="137" y="527" type="curve" smooth="yes"/>
      <point x="137" y="566"/>
      <point x="154" y="592"/>
      <point x="182" y="592" type="curve" smooth="yes"/>
      <point x="203" y="592"/>
      <point x="216" y="577"/>
      <point x="216" y="551" type="curve" smooth="yes"/>
      <point x="216" y="512"/>
      <point x="201" y="487"/>
    </contour>
    <contour>
      <point x="192" y="645" type="curve" smooth="yes"/>
      <point x="175" y="645"/>
      <point x="163" y="659"/>
      <point x="163" y="683" type="curve" smooth="yes"/>
      <point x="163" y="720"/>
      <point x="176" y="743"/>
      <point x="200" y="743" type="curve" smooth="yes"/>
      <point x="217" y="743"/>
      <point x="229" y="730"/>
      <point x="229" y="707" type="curve" smooth="yes"/>
      <point x="229" y="671"/>
      <point x="215" y="645"/>
    </contour>
  </outline>
</glyph>
<glyph name="ninesuperior" format="2">
  <advance width="273"/>
  <unicode hex="2079"/>
  <outline>
    <contour>
      <point x="166" y="430" type="curve" smooth="yes"/>
      <point x="255" y="430"/>
      <point x="304" y="524"/>
      <point x="304" y="676" type="curve" smooth="yes"/>
      <point x="304" y="766"/>
      <point x="264" y="799"/>
      <point x="202" y="799" type="curve" smooth="yes"/>
      <point x="130" y="799"/>
      <point x="80" y="744"/>
      <point x="80" y="663" type="curve" smooth="yes"/>
      <point x="80" y="608"/>
      <point x="108" y="569"/>
      <point x="164" y="569" type="curve" smooth="yes"/>
      <point x="187" y="569"/>
      <point x="210" y="576"/>
      <point x="225" y="591" type="curve"/>
      <point x="216" y="530"/>
      <point x="206" y="496"/>
      <point x="175" y="496" type="curve" smooth="yes"/>
      <point x="152" y="496"/>
      <point x="144" y="512"/>
      <point x="148" y="546" type="curve"/>
      <point x="74" y="546" type="line"/>
      <point x="66" y="480"/>
      <point x="92" y="430"/>
    </contour>
    <contour>
      <point x="187" y="630" type="curve" smooth="yes"/>
      <point x="167" y="630"/>
      <point x="155" y="648"/>
      <point x="155" y="672" type="curve" smooth="yes"/>
      <point x="155" y="711"/>
      <point x="172" y="738"/>
      <point x="197" y="738" type="curve" smooth="yes"/>
      <point x="218" y="738"/>
      <point x="230" y="719"/>
      <point x="230" y="694" type="curve" smooth="yes"/>
      <point x="230" y="654"/>
      <point x="214" y="630"/>
    </contour>
  </outline>
</glyph>
<glyph name="colonsign" format="2">
  <advance width="592"/>
  <unicode hex="20A1"/>
  <outline>
    <contour>
      <point x="270" y="-12" type="curve" smooth="yes"/>
      <point x="438" y="-12"/>
      <point x="529" y="74"/>
      <point x="554" y="254" type="curve"/>
      <point x="434" y="254" type="line"/>
      <point x="418" y="141"/>
      <point x="371" y="88"/>
      <point x="288" y="88" type="curve" smooth="yes"/>
      <point x="183" y="88"/>
      <point x="145" y="175"/>
      <point x="165" y="318" type="curve" smooth="yes"/>
      <point x="172" y="368" type="line" smooth="yes"/>
      <point x="194" y="524"/>
      <point x="253" y="598"/>
      <point x="355" y="598" type="curve" smooth="yes"/>
      <point x="442" y="598"/>
      <point x="479" y="544"/>
      <point x="463" y="431" type="curve"/>
      <point x="579" y="431" type="line"/>
      <point x="605" y="617"/>
      <point x="509" y="698"/>
      <point x="369" y="698" type="curve" smooth="yes"/>
      <point x="147" y="698"/>
      <point x="42" y="535"/>
      <point x="42" y="245" type="curve" smooth="yes"/>
      <point x="42" y="70"/>
      <point x="125" y="-12"/>
    </contour>
    <contour>
      <point x="93" y="-109" type="line"/>
      <point x="148" y="-109" type="line"/>
      <point x="435" y="783" type="line"/>
      <point x="381" y="783" type="line"/>
    </contour>
    <contour>
      <point x="191" y="-109" type="line"/>
      <point x="246" y="-109" type="line"/>
      <point x="533" y="783" type="line"/>
      <point x="479" y="783" type="line"/>
    </contour>
  </outline>
</glyph>
<glyph name="franc" format="2">
  <advance width="504"/>
  <unicode hex="20A3"/>
  <outline>
    <contour>
      <point x="28" y="0" type="line"/>
      <point x="155" y="0" type="line"/>
      <point x="195" y="285" type="line"/>
      <point x="427" y="285" type="line"/>
      <point x="443" y="399" type="line"/>
      <point x="211" y="399" type="line"/>
      <point x="235" y="572" type="line"/>
      <point x="508" y="572" type="line"/>
      <point x="523" y="686" type="line"/>
      <point x="125" y="686" type="line"/>
    </contour>
    <contour>
      <point x="-21" y="121" type="line"/>
      <point x="310" y="121" type="line"/>
      <point x="320" y="186" type="line"/>
      <point x="-11" y="186" type="line"/>
    </contour>
  </outline>
</glyph>
<glyph name="naira" format="2">
  <advance width="592"/>
  <unicode hex="20A6"/>
  <outline>
    <contour>
      <point x="29" y="0" type="line"/>
      <point x="138" y="0" type="line"/>
      <point x="191" y="382" type="line" smooth="yes"/>
      <point x="194" y="409"/>
      <point x="201" y="471"/>
      <point x="201" y="471" type="curve"/>
      <point x="207" y="471" type="line"/>
      <point x="211" y="441"/>
      <point x="227" y="393"/>
      <point x="243" y="357" type="curve" smooth="yes"/>
      <point x="393" y="0" type="line"/>
      <point x="491" y="0" type="line"/>
      <point x="587" y="686" type="line"/>
      <point x="478" y="686" type="line"/>
      <point x="425" y="304" type="line" smooth="yes"/>
      <point x="423" y="287"/>
      <point x="414" y="215"/>
      <point x="414" y="215" type="curve"/>
      <point x="408" y="214" type="line"/>
      <point x="401" y="249"/>
      <point x="388" y="296"/>
      <point x="376" y="322" type="curve" smooth="yes"/>
      <point x="222" y="686" type="line"/>
      <point x="125" y="686" type="line"/>
    </contour>
    <contour>
      <point x="-4" y="227" type="line"/>
      <point x="141" y="227" type="line"/>
      <point x="152" y="308" type="line"/>
      <point x="7" y="308" type="line"/>
    </contour>
    <contour>
      <point x="17" y="378" type="line"/>
      <point x="162" y="378" type="line"/>
      <point x="173" y="459" type="line"/>
      <point x="28" y="459" type="line"/>
    </contour>
    <contour>
      <point x="453" y="227" type="line"/>
      <point x="587" y="227" type="line"/>
      <point x="598" y="308" type="line"/>
      <point x="464" y="308" type="line"/>
    </contour>
    <contour>
      <point x="474" y="378" type="line"/>
      <point x="608" y="378" type="line"/>
      <point x="619" y="459" type="line"/>
      <point x="485" y="459" type="line"/>
    </contour>
  </outline>
</glyph>
<glyph name="won" format="2">
  <advance width="714"/>
  <unicode hex="20A9"/>
  <outline>
    <contour>
      <point x="103" y="0" type="line"/>
      <point x="237" y="0" type="line"/>
      <point x="365" y="437" type="line" smooth="yes"/>
      <point x="374" y="466"/>
      <point x="393" y="534"/>
      <point x="393" y="534" type="curve"/>
      <point x="397" y="534" type="line"/>
      <point x="397" y="534"/>
      <point x="396" y="472"/>
      <point x="397" y="437" type="curve" smooth="yes"/>
      <point x="409" y="0" type="line"/>
      <point x="541" y="0" type="line"/>
      <point x="773" y="686" type="line"/>
      <point x="660" y="686" type="line"/>
      <point x="530" y="264" type="line" smooth="yes"/>
      <point x="518" y="226"/>
      <point x="502" y="158"/>
      <point x="502" y="158" type="curve"/>
      <point x="495" y="158" type="line"/>
      <point x="495" y="158"/>
      <point x="497" y="234"/>
      <point x="497" y="264" type="curve" smooth="yes"/>
      <point x="494" y="686" type="line"/>
      <point x="347" y="686" type="line"/>
      <point x="230" y="264" type="line" smooth="yes"/>
      <point x="221" y="232"/>
      <point x="202" y="158"/>
      <point x="202" y="158" type="curve"/>
      <point x="195" y="158" type="line"/>
      <point x="195" y="158"/>
      <point x="196" y="231"/>
      <point x="194" y="264" type="curve" smooth="yes"/>
      <point x="174" y="686" type="line"/>
      <point x="60" y="686" type="line"/>
    </contour>
    <contour>
      <point x="5" y="293" type="line"/>
      <point x="718" y="293" type="line"/>
      <point x="731" y="389" type="line"/>
      <point x="18" y="389" type="line"/>
    </contour>
  </outline>
</glyph>
<glyph name="dong" format="2">
  <advance width="501"/>
  <unicode hex="20AB"/>
  <outline>
    <contour>
      <point x="180" y="55" type="curve" smooth="yes"/>
      <point x="231" y="55"/>
      <point x="277" y="80"/>
      <point x="310" y="130" type="curve"/>
      <point x="315" y="130" type="line"/>
      <point x="318" y="65" type="line"/>
      <point x="415" y="65" type="line"/>
      <point x="507" y="723" type="line"/>
      <point x="390" y="723" type="line"/>
      <point x="350" y="437" type="line"/>
      <point x="345" y="437" type="line"/>
      <point x="332" y="478"/>
      <point x="289" y="501"/>
      <point x="237" y="501" type="curve" smooth="yes"/>
      <point x="117" y="501"/>
      <point x="39" y="392"/>
      <point x="39" y="224" type="curve" smooth="yes"/>
      <point x="39" y="118"/>
      <point x="91" y="55"/>
    </contour>
    <contour>
      <point x="231" y="152" type="curve" smooth="yes"/>
      <point x="187" y="152"/>
      <point x="163" y="184"/>
      <point x="163" y="245" type="curve" smooth="yes"/>
      <point x="163" y="341"/>
      <point x="203" y="404"/>
      <point x="264" y="404" type="curve" smooth="yes"/>
      <point x="308" y="404"/>
      <point x="330" y="369"/>
      <point x="330" y="310" type="curve" smooth="yes"/>
      <point x="330" y="214"/>
      <point x="291" y="152"/>
    </contour>
    <contour>
      <point x="-6" y="-69" type="line"/>
      <point x="396" y="-69" type="line"/>
      <point x="406" y="0" type="line"/>
      <point x="4" y="0" type="line"/>
    </contour>
    <contour>
      <point x="188" y="563" type="line"/>
      <point x="543" y="563" type="line"/>
      <point x="553" y="632" type="line"/>
      <point x="198" y="632" type="line"/>
    </contour>
  </outline>
</glyph>
<glyph name="kip" format="2">
  <advance width="600"/>
  <unicode hex="20AD"/>
  <outline>
    <contour>
      <point x="33" y="0" type="line"/>
      <point x="154" y="0" type="line"/>
      <point x="197" y="304" type="line"/>
      <point x="243" y="304" type="line"/>
      <point x="416" y="0" type="line"/>
      <point x="546" y="0" type="line"/>
      <point x="370" y="304" type="line"/>
      <point x="558" y="304" type="line"/>
      <point x="569" y="385" type="line"/>
      <point x="375" y="385" type="line"/>
      <point x="638" y="686" type="line"/>
      <point x="504" y="686" type="line"/>
      <point x="247" y="385" type="line"/>
      <point x="208" y="385" type="line"/>
      <point x="250" y="686" type="line"/>
      <point x="129" y="686" type="line"/>
      <point x="87" y="385" type="line"/>
      <point x="17" y="385" type="line"/>
      <point x="6" y="304" type="line"/>
      <point x="76" y="304" type="line"/>
    </contour>
  </outline>
</glyph>
<glyph name="peso" format="2">
  <advance width="547"/>
  <unicode hex="20B1"/>
  <outline>
    <contour>
      <point x="23" y="0" type="line"/>
      <point x="142" y="0" type="line"/>
      <point x="177" y="246" type="line"/>
      <point x="263" y="246" type="line" smooth="yes"/>
      <point x="429" y="246"/>
      <point x="522" y="340"/>
      <point x="522" y="509" type="curve" smooth="yes"/>
      <point x="522" y="614"/>
      <point x="457" y="686"/>
      <point x="325" y="686" type="curve" smooth="yes"/>
      <point x="120" y="686" type="line"/>
    </contour>
    <contour>
      <point x="19" y="397" type="line"/>
      <point x="137" y="397" type="line"/>
      <point x="146" y="447" type="line"/>
      <point x="26" y="447" type="line"/>
    </contour>
    <contour>
      <point x="31" y="482" type="line"/>
      <point x="152" y="482" type="line"/>
      <point x="161" y="532" type="line"/>
      <point x="38" y="532" type="line"/>
    </contour>
    <contour>
      <point x="191" y="347" type="line"/>
      <point x="224" y="584" type="line"/>
      <point x="297" y="584" type="line" smooth="yes"/>
      <point x="368" y="584"/>
      <point x="402" y="554"/>
      <point x="402" y="491" type="curve" smooth="yes"/>
      <point x="402" y="399"/>
      <point x="353" y="347"/>
      <point x="264" y="347" type="curve" smooth="yes"/>
    </contour>
    <contour>
      <point x="443" y="397" type="line"/>
      <point x="566" y="397" type="line"/>
      <point x="573" y="447" type="line"/>
      <point x="447" y="447" type="line"/>
    </contour>
    <contour>
      <point x="450" y="482" type="line"/>
      <point x="578" y="482" type="line"/>
      <point x="585" y="532" type="line"/>
      <point x="455" y="532" type="line"/>
    </contour>
  </outline>
</glyph>
<glyph name="guarani" format="2">
  <advance width="638"/>
  <unicode hex="20B2"/>
  <outline>
    <contour>
      <point x="240" y="-109" type="line"/>
      <point x="295" y="-109" type="line"/>
      <point x="421" y="783" type="line"/>
      <point x="366" y="783" type="line"/>
    </contour>
    <contour>
      <point x="270" y="-12" type="curve" smooth="yes"/>
      <point x="344" y="-12"/>
      <point x="428" y="33"/>
      <point x="481" y="118" type="curve"/>
      <point x="460" y="128" type="line"/>
      <point x="467" y="0" type="line"/>
      <point x="550" y="0" type="line"/>
      <point x="602" y="373" type="line"/>
      <point x="317" y="373" type="line"/>
      <point x="303" y="273" type="line"/>
      <point x="511" y="273" type="line"/>
      <point x="477" y="311" type="line"/>
      <point x="472" y="273" type="line"/>
      <point x="456" y="154"/>
      <point x="393" y="88"/>
      <point x="297" y="88" type="curve" smooth="yes"/>
      <point x="187" y="88"/>
      <point x="148" y="172"/>
      <point x="168" y="318" type="curve" smooth="yes"/>
      <point x="175" y="368" type="line" smooth="yes"/>
      <point x="196" y="516"/>
      <point x="265" y="598"/>
      <point x="368" y="598" type="curve" smooth="yes"/>
      <point x="468" y="598"/>
      <point x="511" y="546"/>
      <point x="496" y="446" type="curve"/>
      <point x="609" y="446" type="line"/>
      <point x="632" y="610"/>
      <point x="522" y="698"/>
      <point x="386" y="698" type="curve" smooth="yes"/>
      <point x="165" y="698"/>
      <point x="42" y="529"/>
      <point x="42" y="240" type="curve" smooth="yes"/>
      <point x="42" y="68"/>
      <point x="130" y="-12"/>
    </contour>
  </outline>
</glyph>
<glyph name="rupeeIndian" format="2">
  <advance width="580"/>
  <unicode hex="20B9"/>
  <outline>
    <contour>
      <point x="292" y="0" type="line"/>
      <point x="417" y="0" type="line"/>
      <point x="211" y="291" type="line"/>
      <point x="252" y="291" type="line" smooth="yes"/>
      <point x="364" y="291"/>
      <point x="445" y="346"/>
      <point x="478" y="444" type="curve"/>
      <point x="565" y="444" type="line"/>
      <point x="577" y="525" type="line"/>
      <point x="491" y="525" type="line"/>
      <point x="488" y="567"/>
      <point x="459" y="603"/>
      <point x="419" y="630" type="curve"/>
      <point x="409" y="610" type="line"/>
      <point x="589" y="610" type="line"/>
      <point x="599" y="686" type="line"/>
      <point x="129" y="686" type="line"/>
      <point x="116" y="589" type="line"/>
      <point x="290" y="589" type="line" smooth="yes"/>
      <point x="341" y="589"/>
      <point x="366" y="565"/>
      <point x="372" y="525" type="curve"/>
      <point x="107" y="525" type="line"/>
      <point x="95" y="444" type="line"/>
      <point x="357" y="444" type="line"/>
      <point x="344" y="405"/>
      <point x="305" y="382"/>
      <point x="256" y="382" type="curve" smooth="yes"/>
      <point x="87" y="382" type="line"/>
      <point x="76" y="306" type="line"/>
    </contour>
  </outline>
</glyph>
<glyph name="liraTurkish" format="2">
  <advance width="501"/>
  <unicode hex="20BA"/>
  <outline>
    <contour>
      <point x="24" y="0" type="line"/>
      <point x="149" y="0" type="line"/>
      <point x="366" y="0"/>
      <point x="449" y="73"/>
      <point x="479" y="290" type="curve"/>
      <point x="365" y="290" type="line"/>
      <point x="345" y="151"/>
      <point x="295" y="106"/>
      <point x="158" y="106" type="curve"/>
      <point x="239" y="686" type="line"/>
      <point x="120" y="686" type="line"/>
    </contour>
    <contour>
      <point x="12" y="345" type="line"/>
      <point x="392" y="485" type="line"/>
      <point x="404" y="568" type="line"/>
      <point x="24" y="428" type="line"/>
    </contour>
    <contour>
      <point x="-9" y="197" type="line"/>
      <point x="371" y="337" type="line"/>
      <point x="383" y="419" type="line"/>
      <point x="3" y="279" type="line"/>
    </contour>
  </outline>
</glyph>
<glyph name="manat" format="2">
  <advance width="600"/>
  <unicode hex="20BC"/>
  <outline>
    <contour>
      <point x="9" y="0" type="line"/>
      <point x="127" y="0" type="line"/>
      <point x="188" y="432" type="line" smooth="yes"/>
      <point x="203" y="545"/>
      <point x="255" y="598"/>
      <point x="347" y="598" type="curve" smooth="yes"/>
      <point x="430" y="598"/>
      <point x="476" y="545"/>
      <point x="460" y="432" type="curve" smooth="yes"/>
      <point x="399" y="0" type="line"/>
      <point x="518" y="0" type="line"/>
      <point x="577" y="422" type="line" smooth="yes"/>
      <point x="603" y="599"/>
      <point x="516" y="698"/>
      <point x="361" y="698" type="curve" smooth="yes"/>
      <point x="189" y="698"/>
      <point x="95" y="609"/>
      <point x="68" y="422" type="curve" smooth="yes"/>
    </contour>
    <contour>
      <point x="252" y="110" type="line"/>
      <point x="308" y="110" type="line"/>
      <point x="403" y="783" type="line"/>
      <point x="347" y="783" type="line"/>
    </contour>
  </outline>
</glyph>
<glyph name="ruble" format="2">
  <advance width="547"/>
  <unicode hex="20BD"/>
  <outline>
    <contour>
      <point x="-22" y="105" type="line"/>
      <point x="38" y="105" type="line"/>
      <point x="23" y="0" type="line"/>
      <point x="141" y="0" type="line"/>
      <point x="156" y="105" type="line"/>
      <point x="326" y="105" type="line"/>
      <point x="338" y="187" type="line"/>
      <point x="168" y="187" type="line"/>
      <point x="179" y="270" type="line"/>
      <point x="296" y="270" type="line" smooth="yes"/>
      <point x="461" y="270"/>
      <point x="553" y="358"/>
      <point x="553" y="517" type="curve" smooth="yes"/>
      <point x="553" y="625"/>
      <point x="479" y="686"/>
      <point x="345" y="686" type="curve" smooth="yes"/>
      <point x="120" y="686" type="line"/>
      <point x="75" y="369" type="line"/>
      <point x="15" y="369" type="line"/>
      <point x="1" y="270" type="line"/>
      <point x="61" y="270" type="line"/>
      <point x="50" y="187" type="line"/>
      <point x="-10" y="187" type="line"/>
    </contour>
    <contour>
      <point x="193" y="369" type="line"/>
      <point x="223" y="582" type="line"/>
      <point x="337" y="582" type="line" smooth="yes"/>
      <point x="397" y="582"/>
      <point x="431" y="552"/>
      <point x="431" y="499" type="curve" smooth="yes"/>
      <point x="431" y="411"/>
      <point x="391" y="369"/>
      <point x="307" y="369" type="curve" smooth="yes"/>
    </contour>
  </outline>
</glyph>
<glyph name="numero" format="2">
  <advance width="940"/>
  <unicode hex="2116"/>
  <outline>
    <contour>
      <point x="28" y="0" type="line"/>
      <point x="140" y="0" type="line"/>
      <point x="193" y="382" type="line" smooth="yes"/>
      <point x="196" y="400"/>
      <point x="199" y="439"/>
      <point x="199" y="439" type="curve"/>
      <point x="203" y="442" type="line"/>
      <point x="203" y="442"/>
      <point x="219" y="392"/>
      <point x="225" y="378" type="curve" smooth="yes"/>
      <point x="382" y="0" type="line"/>
      <point x="495" y="0" type="line"/>
      <point x="591" y="686" type="line"/>
      <point x="478" y="686" type="line"/>
      <point x="425" y="304" type="line" smooth="yes"/>
      <point x="423" y="293"/>
      <point x="418" y="247"/>
      <point x="418" y="247" type="curve"/>
      <point x="415" y="244" type="line"/>
      <point x="415" y="244"/>
      <point x="400" y="291"/>
      <point x="393" y="308" type="curve" smooth="yes"/>
      <point x="236" y="686" type="line"/>
      <point x="124" y="686" type="line"/>
    </contour>
    <contour>
      <point x="610" y="180" type="line"/>
      <point x="854" y="180" type="line"/>
      <point x="866" y="264" type="line"/>
      <point x="622" y="264" type="line"/>
    </contour>
    <contour>
      <point x="753" y="304" type="curve" smooth="yes"/>
      <point x="873" y="304"/>
      <point x="919" y="428"/>
      <point x="919" y="560" type="curve" smooth="yes"/>
      <point x="919" y="655"/>
      <point x="878" y="698"/>
      <point x="799" y="698" type="curve" smooth="yes"/>
      <point x="706" y="698"/>
      <point x="633" y="619"/>
      <point x="633" y="442" type="curve" smooth="yes"/>
      <point x="633" y="347"/>
      <point x="674" y="304"/>
    </contour>
    <contour>
      <point x="759" y="384" type="curve" smooth="yes"/>
      <point x="735" y="384"/>
      <point x="724" y="406"/>
      <point x="724" y="446" type="curve" smooth="yes"/>
      <point x="724" y="511"/>
      <point x="741" y="618"/>
      <point x="792" y="618" type="curve" smooth="yes"/>
      <point x="817" y="618"/>
      <point x="829" y="596"/>
      <point x="829" y="554" type="curve" smooth="yes"/>
      <point x="829" y="490"/>
      <point x="811" y="384"/>
    </contour>
  </outline>
</glyph>
<glyph name="emptyset" format="2">
  <advance width="456"/>
  <unicode hex="2205"/>
  <outline>
    <contour>
      <point x="240" y="102" type="curve" smooth="yes"/>
      <point x="365" y="102"/>
      <point x="448" y="202"/>
      <point x="448" y="351" type="curve" smooth="yes"/>
      <point x="448" y="499"/>
      <point x="364" y="598"/>
      <point x="239" y="598" type="curve" smooth="yes"/>
      <point x="115" y="598"/>
      <point x="33" y="499"/>
      <point x="33" y="351" type="curve" smooth="yes"/>
      <point x="33" y="202"/>
      <point x="116" y="102"/>
    </contour>
    <contour>
      <point x="240" y="181" type="curve" smooth="yes"/>
      <point x="164" y="181"/>
      <point x="114" y="249"/>
      <point x="115" y="351" type="curve" smooth="yes"/>
      <point x="116" y="452"/>
      <point x="166" y="519"/>
      <point x="240" y="519" type="curve" smooth="yes"/>
      <point x="317" y="519"/>
      <point x="368" y="451"/>
      <point x="367" y="350" type="curve" smooth="yes"/>
      <point x="366" y="249"/>
      <point x="315" y="181"/>
    </contour>
    <contour>
      <point x="69" y="99" type="line"/>
      <point x="460" y="562" type="line"/>
      <point x="413" y="603" type="line"/>
      <point x="22" y="140" type="line"/>
    </contour>
  </outline>
</glyph>
<glyph name="radical" format="2">
  <advance width="549"/>
  <unicode hex="221A"/>
  <outline>
    <contour>
      <point x="215" y="-148" type="curve"/>
      <point x="325" y="-148" type="line"/>
      <point x="628" y="857" type="line"/>
      <point x="547" y="857" type="line"/>
      <point x="285" y="-30" type="line"/>
      <point x="283" y="-9"/>
      <point x="277" y="37"/>
      <point x="275" y="44" type="curve"/>
      <point x="197" y="391" type="line"/>
      <point x="15" y="323" type="line"/>
      <point x="27" y="263" type="line"/>
      <point x="108" y="293" type="line"/>
      <point x="143" y="146"/>
      <point x="179" y="-1"/>
    </contour>
  </outline>
</glyph>
<glyph name="equivalence" format="2">
  <advance width="479"/>
  <unicode hex="2261"/>
  <outline>
    <contour>
      <point x="55" y="442" type="line"/>
      <point x="467" y="442" type="line"/>
      <point x="482" y="546" type="line"/>
      <point x="70" y="546" type="line"/>
    </contour>
    <contour>
      <point x="-4" y="17" type="line"/>
      <point x="407" y="17" type="line"/>
      <point x="422" y="120" type="line"/>
      <point x="10" y="120" type="line"/>
    </contour>
    <contour>
      <point x="25" y="229" type="line"/>
      <point x="437" y="229" type="line"/>
      <point x="452" y="333" type="line"/>
      <point x="40" y="333" type="line"/>
    </contour>
  </outline>
</glyph>
<glyph name="lozenge" format="2">
  <advance width="494"/>
  <unicode hex="25CA"/>
  <outline>
    <contour>
      <point x="167" y="0" type="line"/>
      <point x="241" y="0" type="line"/>
      <point x="491" y="342" type="line"/>
      <point x="337" y="686" type="line"/>
      <point x="263" y="686" type="line"/>
      <point x="25" y="342" type="line"/>
    </contour>
    <contour>
      <point x="231" y="145" type="line"/>
      <point x="148" y="349" type="line"/>
      <point x="278" y="540" type="line"/>
      <point x="366" y="335" type="line"/>
    </contour>
  </outline>
</glyph>
<glyph name="leftanglebracket-math" format="2">
  <advance width="273"/>
  <unicode hex="27E8"/>
  <outline>
    <contour>
      <point x="97" y="-157" type="line"/>
      <point x="184" y="-157" type="line"/>
      <point x="148" y="296" type="line"/>
      <point x="309" y="735" type="line"/>
      <point x="223" y="735" type="line"/>
      <point x="25" y="296" type="line"/>
    </contour>
  </outline>
</glyph>
<glyph name="rightanglebracket-math" format="2">
  <advance width="273"/>
  <unicode hex="27E9"/>
  <outline>
    <contour>
      <point x="-29" y="-157" type="line"/>
      <point x="62" y="-157" type="line"/>
      <point x="258" y="296" type="line"/>
      <point x="184" y="735" type="line"/>
      <point x="99" y="735" type="line"/>
      <point x="136" y="302" type="line"/>
    </contour>
  </outline>
</glyph>
<glyph name="commaaccent" format="2">
  <unicode hex="F6C3"/>
  <outline>
    <contour>
      <point x="-74" y="-263" type="line"/>
      <point x="-9" y="-263" type="line"/>
      <point x="51" y="-167" type="line"/>
      <point x="65" y="-67" type="line"/>
      <point x="-42" y="-67" type="line"/>
      <point x="-58" y="-178" type="line"/>
      <point x="-26" y="-178" type="line"/>
    </contour>
  </outline>
</glyph>
<glyph name="Y.loclGUA" format="2">
  <advance width="540"/>
  <anchor x="233" y="0" name="bottom"/>
  <anchor x="329" y="686" name="top"/>
  <anchor x="115" y="686" name="topleft"/>
  <outline>
    <contour>
      <point x="225" y="-12" type="curve" smooth="yes"/>
      <point x="364" y="-12"/>
      <point x="456" y="63"/>
      <point x="483" y="253" type="curve" smooth="yes"/>
      <point x="544" y="686" type="line"/>
      <point x="421" y="686" type="line"/>
      <point x="392" y="478" type="line" smooth="yes"/>
      <point x="376" y="364"/>
      <point x="335" y="304"/>
      <point x="265" y="304" type="curve" smooth="yes"/>
      <point x="212" y="304"/>
      <point x="190" y="342"/>
      <point x="199" y="408" type="curve" smooth="yes"/>
      <point x="238" y="686" type="line"/>
      <point x="115" y="686" type="line"/>
      <point x="75" y="403" type="line" smooth="yes"/>
      <point x="56" y="266"/>
      <point x="117" y="198"/>
      <point x="225" y="198" type="curve" smooth="yes"/>
      <point x="275" y="198"/>
      <point x="321" y="214"/>
      <point x="356" y="274" type="curve"/>
      <point x="363" y="274" type="line"/>
      <point x="359" y="248" type="line" smooth="yes"/>
      <point x="343" y="145"/>
      <point x="313" y="94"/>
      <point x="247" y="94" type="curve" smooth="yes"/>
      <point x="190" y="94"/>
      <point x="153" y="120"/>
      <point x="160" y="168" type="curve"/>
      <point x="42" y="168" type="line"/>
      <point x="41" y="160" type="line" smooth="yes"/>
      <point x="27" y="50"/>
      <point x="95" y="-12"/>
    </contour>
  </outline>
</glyph>
<glyph name=".notdef" format="2">
  <advance width="500"/>
  <outline>
    <contour>
      <point x="-37" y="0" type="line"/>
      <point x="463" y="0" type="line"/>
      <point x="561" y="700" type="line"/>
      <point x="61" y="700" type="line"/>
    </contour>
    <contour>
      <point x="50" y="50" type="line"/>
      <point x="256" y="305" type="line"/>
      <point x="390" y="50" type="line"/>
    </contour>
    <contour>
      <point x="26" y="95" type="line"/>
      <point x="98" y="605" type="line"/>
      <point x="232" y="350" type="line"/>
    </contour>
    <contour>
      <point x="426" y="95" type="line"/>
      <point x="292" y="350" type="line"/>
      <point x="498" y="605" type="line"/>
    </contour>
    <contour>
      <point x="269" y="395" type="line"/>
      <point x="134" y="650" type="line"/>
      <point x="474" y="650" type="line"/>
    </contour>
  </outline>
</glyph>
<glyph name="acute.loclPLK" format="2">
  <advance width="167"/>
  <anchor x="86" y="526" name="_top"/>
  <outline>
    <contour>
      <point x="46" y="591" type="line"/>
      <point x="145" y="591" type="line"/>
      <point x="235" y="750" type="line"/>
      <point x="234" y="753" type="line"/>
      <point x="107" y="753" type="line"/>
    </contour>
  </outline>
</glyph>
<glyph name="acutecomb.case" format="2">
  <anchor x="111" y="526" name="_top"/>
  <anchor x="133" y="686" name="top"/>
  <outline>
    <contour>
      <point x="46" y="591" type="line"/>
      <point x="155" y="591" type="line"/>
      <point x="257" y="690" type="line"/>
      <point x="256" y="693" type="line"/>
      <point x="126" y="693" type="line"/>
    </contour>
  </outline>
</glyph>
<glyph name="breveinvertedcomb.case" format="2">
  <anchor x="171" y="526" name="_top"/>
  <anchor x="199" y="723" name="top"/>
  <outline>
    <contour>
      <point x="51" y="626" type="curve"/>
      <point x="127" y="626" type="line"/>
      <point x="132" y="640"/>
      <point x="158" y="659"/>
      <point x="191" y="659" type="curve" smooth="yes"/>
      <point x="225" y="659"/>
      <point x="246" y="640"/>
      <point x="246" y="626" type="curve"/>
      <point x="318" y="626" type="line"/>
      <point x="326" y="676"/>
      <point x="283" y="733"/>
      <point x="200" y="733" type="curve" smooth="yes"/>
      <point x="118" y="733"/>
      <point x="59" y="676"/>
    </contour>
  </outline>
</glyph>
<glyph name="caroncomb.alt" format="2">
  <anchor x="37" y="526" name="_topright"/>
  <outline>
    <contour>
      <point x="40" y="546" type="line"/>
      <point x="114" y="546" type="line"/>
      <point x="203" y="723" type="line"/>
      <point x="100" y="723" type="line"/>
    </contour>
  </outline>
</glyph>
<glyph name="caroncomb.case" format="2">
  <anchor x="172" y="526" name="_top"/>
  <anchor x="194" y="686" name="top"/>
  <outline>
    <contour>
      <point x="132" y="588" type="line"/>
      <point x="230" y="588" type="line"/>
      <point x="329" y="693" type="line"/>
      <point x="237" y="693" type="line"/>
      <point x="188" y="654" type="line"/>
      <point x="148" y="693" type="line"/>
      <point x="60" y="693" type="line"/>
    </contour>
  </outline>
</glyph>
<glyph name="cedillacomb.case" format="2">
  <anchor x="45" y="0" name="_bottom"/>
  <anchor x="19" y="-182" name="bottom"/>
  <outline>
    <contour>
      <point x="21" y="-182" type="curve" smooth="yes"/>
      <point x="99" y="-182"/>
      <point x="143" y="-149"/>
      <point x="143" y="-91" type="curve" smooth="yes"/>
      <point x="143" y="-57"/>
      <point x="118" y="-36"/>
      <point x="72" y="-33" type="curve"/>
      <point x="84" y="11" type="line"/>
      <point x="16" y="11" type="line"/>
      <point x="-8" y="-77" type="line"/>
      <point x="25" y="-77" type="line" smooth="yes"/>
      <point x="46" y="-77"/>
      <point x="56" y="-83"/>
      <point x="56" y="-96" type="curve" smooth="yes"/>
      <point x="56" y="-116"/>
      <point x="43" y="-125"/>
      <point x="16" y="-125" type="curve"/>
      <point x="-55" y="-125" type="line"/>
      <point x="-61" y="-174" type="line"/>
      <point x="-38" y="-179"/>
      <point x="-7" y="-182"/>
    </contour>
  </outline>
</glyph>
<glyph name="circumflexcomb.case" format="2">
  <anchor x="172" y="526" name="_top"/>
  <anchor x="189" y="666" name="top"/>
  <outline>
    <contour>
      <point x="46" y="588" type="line"/>
      <point x="138" y="588" type="line"/>
      <point x="188" y="627" type="line"/>
      <point x="227" y="588" type="line"/>
      <point x="315" y="588" type="line"/>
      <point x="244" y="693" type="line"/>
      <point x="146" y="693" type="line"/>
    </contour>
  </outline>
</glyph>
<glyph name="commaturnedabovecomb.case" format="2">
  <anchor x="94" y="526" name="_top"/>
  <anchor x="116" y="686" name="top"/>
  <outline>
    <contour>
      <point x="49" y="608" type="line"/>
      <point x="156" y="608" type="line"/>
      <point x="172" y="719" type="line"/>
      <point x="140" y="719" type="line"/>
      <point x="188" y="804" type="line"/>
      <point x="123" y="804" type="line"/>
      <point x="63" y="708" type="line"/>
    </contour>
  </outline>
</glyph>
<glyph name="dblgravecomb.case" format="2">
  <anchor x="227" y="526" name="_top"/>
  <anchor x="249" y="686" name="top"/>
  <outline>
    <contour>
      <point x="270" y="591" type="line"/>
      <point x="349" y="591" type="line"/>
      <point x="301" y="693" type="line"/>
      <point x="201" y="693" type="line"/>
      <point x="200" y="690" type="line"/>
    </contour>
    <contour>
      <point x="130" y="591" type="line"/>
      <point x="209" y="591" type="line"/>
      <point x="161" y="693" type="line"/>
      <point x="61" y="693" type="line"/>
      <point x="60" y="690" type="line"/>
    </contour>
  </outline>
</glyph>
<glyph name="dieresisbelowcomb.case" format="2">
  <anchor x="101" y="0" name="_bottom"/>
  <anchor x="76" y="-182" name="bottom"/>
  <outline>
    <contour>
      <point x="98" y="-182" type="line"/>
      <point x="213" y="-182" type="line"/>
      <point x="229" y="-67" type="line"/>
      <point x="114" y="-67" type="line"/>
    </contour>
    <contour>
      <point x="-62" y="-182" type="line"/>
      <point x="53" y="-182" type="line"/>
      <point x="69" y="-67" type="line"/>
      <point x="-46" y="-67" type="line"/>
    </contour>
  </outline>
</glyph>
<glyph name="dotaccentcomb.case" format="2">
  <anchor x="101" y="526" name="_top"/>
  <anchor x="129" y="723" name="top"/>
  <outline>
    <contour>
      <point x="49" y="608" type="line"/>
      <point x="177" y="608" type="line"/>
      <point x="193" y="723" type="line"/>
      <point x="65" y="723" type="line"/>
    </contour>
  </outline>
</glyph>
<glyph name="eight.osf" format="2">
  <advance width="456"/>
  <outline>
    <contour>
      <point x="192" y="-10" type="curve" smooth="yes"/>
      <point x="317" y="-10"/>
      <point x="397" y="71"/>
      <point x="397" y="196" type="curve" smooth="yes"/>
      <point x="397" y="247"/>
      <point x="376" y="285"/>
      <point x="334" y="306" type="curve"/>
      <point x="389" y="338"/>
      <point x="422" y="402"/>
      <point x="422" y="470" type="curve" smooth="yes"/>
      <point x="422" y="547"/>
      <point x="374" y="607"/>
      <point x="275" y="607" type="curve" smooth="yes"/>
      <point x="158" y="607"/>
      <point x="84" y="530"/>
      <point x="84" y="412" type="curve" smooth="yes"/>
      <point x="84" y="367"/>
      <point x="100" y="330"/>
      <point x="133" y="306" type="curve"/>
      <point x="71" y="278"/>
      <point x="32" y="214"/>
      <point x="32" y="131" type="curve" smooth="yes"/>
      <point x="32" y="51"/>
      <point x="80" y="-10"/>
    </contour>
    <contour>
      <point x="205" y="84" type="curve" smooth="yes"/>
      <point x="172" y="84"/>
      <point x="152" y="108"/>
      <point x="152" y="148" type="curve" smooth="yes"/>
      <point x="152" y="215"/>
      <point x="181" y="258"/>
      <point x="226" y="258" type="curve" smooth="yes"/>
      <point x="258" y="258"/>
      <point x="278" y="234"/>
      <point x="278" y="193" type="curve" smooth="yes"/>
      <point x="278" y="126"/>
      <point x="250" y="84"/>
    </contour>
    <contour>
      <point x="243" y="352" type="curve" smooth="yes"/>
      <point x="216" y="352"/>
      <point x="200" y="373"/>
      <point x="200" y="409" type="curve" smooth="yes"/>
      <point x="200" y="473"/>
      <point x="224" y="513"/>
      <point x="261" y="513" type="curve" smooth="yes"/>
      <point x="288" y="513"/>
      <point x="305" y="492"/>
      <point x="305" y="455" type="curve" smooth="yes"/>
      <point x="305" y="392"/>
      <point x="281" y="352"/>
    </contour>
  </outline>
</glyph>
<glyph name="five.osf" format="2">
  <advance width="456"/>
  <outline>
    <contour>
      <point x="192" y="-10" type="curve" smooth="yes"/>
      <point x="322" y="-10"/>
      <point x="405" y="89"/>
      <point x="405" y="241" type="curve" smooth="yes"/>
      <point x="405" y="340"/>
      <point x="350" y="388"/>
      <point x="277" y="388" type="curve" smooth="yes"/>
      <point x="236" y="388"/>
      <point x="210" y="376"/>
      <point x="190" y="364" type="curve"/>
      <point x="217" y="492" type="line"/>
      <point x="417" y="492" type="line"/>
      <point x="432" y="597" type="line"/>
      <point x="130" y="597" type="line"/>
      <point x="62" y="266" type="line"/>
      <point x="172" y="251" type="line"/>
      <point x="188" y="276"/>
      <point x="206" y="296"/>
      <point x="239" y="296" type="curve" smooth="yes"/>
      <point x="266" y="296"/>
      <point x="286" y="270"/>
      <point x="286" y="224" type="curve" smooth="yes"/>
      <point x="286" y="139"/>
      <point x="255" y="84"/>
      <point x="205" y="84" type="curve" smooth="yes"/>
      <point x="164" y="84"/>
      <point x="145" y="124"/>
      <point x="154" y="185" type="curve"/>
      <point x="34" y="185" type="line"/>
      <point x="17" y="64"/>
      <point x="80" y="-10"/>
    </contour>
  </outline>
</glyph>
<glyph name="four.osf" format="2">
  <advance width="456"/>
  <outline>
    <contour>
      <point x="210" y="0" type="line"/>
      <point x="325" y="0" type="line"/>
      <point x="343" y="131" type="line"/>
      <point x="406" y="131" type="line"/>
      <point x="419" y="227" type="line"/>
      <point x="356" y="227" type="line"/>
      <point x="398" y="519" type="line"/>
      <point x="348" y="519" type="line"/>
      <point x="331" y="478"/>
      <point x="294" y="399"/>
      <point x="258" y="343" type="curve"/>
      <point x="241" y="227" type="line"/>
      <point x="125" y="227" type="line"/>
      <point x="166" y="274"/>
      <point x="289" y="454"/>
      <point x="346" y="607" type="curve"/>
      <point x="231" y="607" type="line"/>
      <point x="178" y="479"/>
      <point x="101" y="328"/>
      <point x="22" y="221" type="curve"/>
      <point x="9" y="131" type="line"/>
      <point x="228" y="131" type="line"/>
    </contour>
  </outline>
</glyph>
<glyph name="gravecomb.case" format="2">
  <anchor x="175" y="526" name="_top"/>
  <anchor x="197" y="686" name="top"/>
  <outline>
    <contour>
      <point x="154" y="591" type="line"/>
      <point x="253" y="591" type="line"/>
      <point x="181" y="693" type="line"/>
      <point x="61" y="693" type="line"/>
      <point x="60" y="690" type="line"/>
    </contour>
  </outline>
</glyph>
<glyph name="hookabovecomb.case" format="2">
  <anchor x="107" y="526" name="_top"/>
  <anchor x="135" y="723" name="top"/>
  <outline>
    <contour>
      <point x="82" y="586" type="line"/>
      <point x="146" y="586" type="line"/>
      <point x="149" y="607" type="line"/>
      <point x="196" y="611"/>
      <point x="224" y="636"/>
      <point x="224" y="672" type="curve" smooth="yes"/>
      <point x="224" y="715"/>
      <point x="173" y="725"/>
      <point x="134" y="725" type="curve" smooth="yes"/>
      <point x="113" y="725"/>
      <point x="85" y="722"/>
      <point x="64" y="717" type="curve"/>
      <point x="58" y="675" type="line"/>
      <point x="106" y="675" type="line" smooth="yes"/>
      <point x="122" y="675"/>
      <point x="138" y="673"/>
      <point x="138" y="659" type="curve" smooth="yes"/>
      <point x="138" y="642"/>
      <point x="124" y="637"/>
      <point x="104" y="637" type="curve" smooth="yes"/>
      <point x="90" y="637" type="line"/>
    </contour>
  </outline>
</glyph>
<glyph name="horncomb.case" format="2">
  <anchor x="37" y="526" name="_topright"/>
  <anchor x="55" y="660" name="topright"/>
  <outline>
    <contour>
      <point x="27" y="456" type="line"/>
      <point x="107" y="456" type="line" smooth="yes"/>
      <point x="195" y="456"/>
      <point x="242" y="496"/>
      <point x="254" y="579" type="curve" smooth="yes"/>
      <point x="265" y="660" type="line"/>
      <point x="165" y="660" type="line"/>
      <point x="154" y="579" type="line" smooth="yes"/>
      <point x="149" y="543"/>
      <point x="131" y="526"/>
      <point x="97" y="526" type="curve" smooth="yes"/>
      <point x="37" y="526" type="line"/>
    </contour>
  </outline>
</glyph>
<glyph name="hungarumlautcomb.case" format="2">
  <anchor x="150" y="526" name="_top"/>
  <anchor x="172" y="686" name="top"/>
  <outline>
    <contour>
      <point x="186" y="591" type="line"/>
      <point x="265" y="591" type="line"/>
      <point x="363" y="690" type="line"/>
      <point x="362" y="693" type="line"/>
      <point x="262" y="693" type="line"/>
    </contour>
    <contour>
      <point x="46" y="591" type="line"/>
      <point x="125" y="591" type="line"/>
      <point x="223" y="690" type="line"/>
      <point x="222" y="693" type="line"/>
      <point x="122" y="693" type="line"/>
    </contour>
  </outline>
</glyph>
<glyph name="macronbelowcomb.case" format="2">
  <anchor x="92" y="0" name="_bottom"/>
  <anchor x="66" y="-182" name="bottom"/>
  <outline>
    <contour>
      <point x="-58" y="-154" type="line"/>
      <point x="197" y="-154" type="line"/>
      <point x="209" y="-67" type="line"/>
      <point x="-46" y="-67" type="line"/>
    </contour>
  </outline>
</glyph>
<glyph name="nine.osf" format="2">
  <advance width="456"/>
  <outline>
    <contour>
      <point x="197" y="-10" type="curve" smooth="yes"/>
      <point x="339" y="-10"/>
      <point x="424" y="159"/>
      <point x="424" y="418" type="curve" smooth="yes"/>
      <point x="424" y="558"/>
      <point x="361" y="607"/>
      <point x="264" y="607" type="curve" smooth="yes"/>
      <point x="142" y="607"/>
      <point x="66" y="513"/>
      <point x="66" y="368" type="curve" smooth="yes"/>
      <point x="66" y="282"/>
      <point x="106" y="222"/>
      <point x="190" y="222" type="curve" smooth="yes"/>
      <point x="229" y="222"/>
      <point x="271" y="238"/>
      <point x="295" y="266" type="curve"/>
      <point x="285" y="185"/>
      <point x="257" y="85"/>
      <point x="207" y="85" type="curve" smooth="yes"/>
      <point x="169" y="85"/>
      <point x="158" y="122"/>
      <point x="167" y="184" type="curve"/>
      <point x="53" y="184" type="line"/>
      <point x="37" y="73"/>
      <point x="83" y="-10"/>
    </contour>
    <contour>
      <point x="234" y="314" type="curve" smooth="yes"/>
      <point x="203" y="314"/>
      <point x="186" y="343"/>
      <point x="186" y="384" type="curve" smooth="yes"/>
      <point x="186" y="458"/>
      <point x="215" y="512"/>
      <point x="257" y="512" type="curve" smooth="yes"/>
      <point x="290" y="512"/>
      <point x="307" y="480"/>
      <point x="307" y="440" type="curve" smooth="yes"/>
      <point x="307" y="366"/>
      <point x="277" y="314"/>
    </contour>
  </outline>
</glyph>
<glyph name="ogonekcomb.case" format="2">
  <anchor x="92" y="0" name="_ogonek"/>
  <outline>
    <contour>
      <point x="37" y="-188" type="curve" smooth="yes"/>
      <point x="59" y="-188"/>
      <point x="80" y="-184"/>
      <point x="104" y="-177" type="curve"/>
      <point x="112" y="-121" type="line"/>
      <point x="90" y="-121" type="line" smooth="yes"/>
      <point x="53" y="-121"/>
      <point x="35" y="-109"/>
      <point x="35" y="-86" type="curve" smooth="yes"/>
      <point x="35" y="-57"/>
      <point x="54" y="-27"/>
      <point x="89" y="0" type="curve"/>
      <point x="87" y="4" type="line"/>
      <point x="16" y="4" type="line"/>
      <point x="-28" y="-34"/>
      <point x="-52" y="-77"/>
      <point x="-52" y="-116" type="curve" smooth="yes"/>
      <point x="-52" y="-162"/>
      <point x="-20" y="-188"/>
    </contour>
  </outline>
</glyph>
<glyph name="one.osf" format="2">
  <advance width="456"/>
  <outline>
    <contour>
      <point x="9" y="0" type="line"/>
      <point x="386" y="0" type="line"/>
      <point x="400" y="96" type="line"/>
      <point x="269" y="96" type="line"/>
      <point x="339" y="597" type="line"/>
      <point x="281" y="597" type="line"/>
      <point x="217" y="561"/>
      <point x="132" y="534"/>
      <point x="82" y="529" type="curve"/>
      <point x="71" y="451" type="line"/>
      <point x="203" y="451" type="line"/>
      <point x="154" y="96" type="line"/>
      <point x="23" y="96" type="line"/>
    </contour>
  </outline>
</glyph>
<glyph name="periodcentered.loclCAT.case" format="2">
  <advance width="273"/>
  <anchor x="155" y="393" name="_center"/>
  <outline>
    <contour>
      <point x="82" y="331" type="line"/>
      <point x="210" y="331" type="line"/>
      <point x="228" y="456" type="line"/>
      <point x="100" y="456" type="line"/>
    </contour>
  </outline>
</glyph>
<glyph name="ringcomb.case" format="2">
  <anchor x="133" y="526" name="_top"/>
  <anchor x="164" y="753" name="top"/>
  <outline>
    <contour>
      <point x="138" y="561" type="curve" smooth="yes"/>
      <point x="201" y="561"/>
      <point x="248" y="608"/>
      <point x="248" y="670" type="curve" smooth="yes"/>
      <point x="248" y="717"/>
      <point x="212" y="753"/>
      <point x="164" y="753" type="curve" smooth="yes"/>
      <point x="101" y="753"/>
      <point x="54" y="706"/>
      <point x="54" y="643" type="curve" smooth="yes"/>
      <point x="54" y="596"/>
      <point x="90" y="561"/>
    </contour>
    <contour>
      <point x="145" y="615" type="curve" smooth="yes"/>
      <point x="124" y="615"/>
      <point x="109" y="630"/>
      <point x="109" y="651" type="curve" smooth="yes"/>
      <point x="109" y="678"/>
      <point x="130" y="699"/>
      <point x="157" y="699" type="curve" smooth="yes"/>
      <point x="178" y="699"/>
      <point x="193" y="684"/>
      <point x="193" y="663" type="curve" smooth="yes"/>
      <point x="193" y="636"/>
      <point x="172" y="615"/>
    </contour>
  </outline>
</glyph>
<glyph name="seven.osf" format="2">
  <advance width="456"/>
  <outline>
    <contour>
      <point x="74" y="0" type="curve"/>
      <point x="204" y="0" type="line"/>
      <point x="204" y="2"/>
      <point x="207" y="31"/>
      <point x="209" y="44" type="curve" smooth="yes"/>
      <point x="236" y="222"/>
      <point x="358" y="405"/>
      <point x="453" y="519" type="curve"/>
      <point x="464" y="597" type="line"/>
      <point x="91" y="597" type="line"/>
      <point x="76" y="492" type="line"/>
      <point x="325" y="492" type="line"/>
      <point x="210" y="372"/>
      <point x="100" y="184"/>
    </contour>
  </outline>
</glyph>
<glyph name="six.osf" format="2">
  <advance width="456"/>
  <outline>
    <contour>
      <point x="199" y="-10" type="curve" smooth="yes"/>
      <point x="322" y="-10"/>
      <point x="402" y="84"/>
      <point x="402" y="229" type="curve" smooth="yes"/>
      <point x="402" y="314"/>
      <point x="354" y="375"/>
      <point x="277" y="375" type="curve" smooth="yes"/>
      <point x="239" y="375"/>
      <point x="200" y="359"/>
      <point x="176" y="331" type="curve"/>
      <point x="193" y="438"/>
      <point x="215" y="512"/>
      <point x="262" y="512" type="curve" smooth="yes"/>
      <point x="301" y="512"/>
      <point x="312" y="474"/>
      <point x="304" y="413" type="curve"/>
      <point x="415" y="413" type="line"/>
      <point x="430" y="524"/>
      <point x="386" y="607"/>
      <point x="270" y="607" type="curve" smooth="yes"/>
      <point x="129" y="607"/>
      <point x="44" y="438"/>
      <point x="44" y="179" type="curve" smooth="yes"/>
      <point x="44" y="48"/>
      <point x="103" y="-10"/>
    </contour>
    <contour>
      <point x="211" y="85" type="curve" smooth="yes"/>
      <point x="179" y="85"/>
      <point x="161" y="117"/>
      <point x="161" y="157" type="curve" smooth="yes"/>
      <point x="161" y="230"/>
      <point x="191" y="282"/>
      <point x="234" y="282" type="curve" smooth="yes"/>
      <point x="265" y="282"/>
      <point x="282" y="254"/>
      <point x="282" y="213" type="curve" smooth="yes"/>
      <point x="282" y="138"/>
      <point x="253" y="85"/>
    </contour>
  </outline>
</glyph>
<glyph name="three.osf" format="2">
  <advance width="456"/>
  <outline>
    <contour>
      <point x="192" y="-10" type="curve" smooth="yes"/>
      <point x="317" y="-10"/>
      <point x="395" y="69"/>
      <point x="395" y="190" type="curve" smooth="yes"/>
      <point x="395" y="254"/>
      <point x="362" y="291"/>
      <point x="322" y="306" type="curve"/>
      <point x="323" y="310" type="line"/>
      <point x="374" y="336"/>
      <point x="424" y="384"/>
      <point x="424" y="474" type="curve" smooth="yes"/>
      <point x="424" y="561"/>
      <point x="361" y="607"/>
      <point x="270" y="607" type="curve" smooth="yes"/>
      <point x="161" y="607"/>
      <point x="95" y="549"/>
      <point x="79" y="444" type="curve" smooth="yes"/>
      <point x="75" y="417" type="line"/>
      <point x="195" y="417" type="line"/>
      <point x="198" y="436" type="line" smooth="yes"/>
      <point x="206" y="486"/>
      <point x="227" y="512"/>
      <point x="260" y="512" type="curve" smooth="yes"/>
      <point x="288" y="512"/>
      <point x="303" y="494"/>
      <point x="303" y="461" type="curve" smooth="yes"/>
      <point x="303" y="401"/>
      <point x="272" y="351"/>
      <point x="233" y="351" type="curve" smooth="yes"/>
      <point x="196" y="351" type="line"/>
      <point x="182" y="255" type="line"/>
      <point x="217" y="255" type="line" smooth="yes"/>
      <point x="248" y="255"/>
      <point x="275" y="241"/>
      <point x="275" y="191" type="curve" smooth="yes"/>
      <point x="275" y="127"/>
      <point x="246" y="85"/>
      <point x="200" y="85" type="curve" smooth="yes"/>
      <point x="158" y="85"/>
      <point x="142" y="115"/>
      <point x="149" y="166" type="curve" smooth="yes"/>
      <point x="152" y="187" type="line"/>
      <point x="32" y="187" type="line"/>
      <point x="29" y="169" type="line" smooth="yes"/>
      <point x="11" y="59"/>
      <point x="74" y="-10"/>
    </contour>
  </outline>
</glyph>
<glyph name="tildecomb.case" format="2">
  <anchor x="190" y="526" name="_top"/>
  <anchor x="213" y="686" name="top"/>
  <outline>
    <contour>
      <point x="46" y="587" type="curve"/>
      <point x="105" y="587" type="line"/>
      <point x="113" y="611"/>
      <point x="127" y="620"/>
      <point x="146" y="620" type="curve" smooth="yes"/>
      <point x="187" y="620"/>
      <point x="207" y="587"/>
      <point x="261" y="587" type="curve" smooth="yes"/>
      <point x="318" y="587"/>
      <point x="356" y="626"/>
      <point x="366" y="697" type="curve"/>
      <point x="307" y="697" type="line"/>
      <point x="299" y="672"/>
      <point x="285" y="664"/>
      <point x="266" y="664" type="curve" smooth="yes"/>
      <point x="225" y="664"/>
      <point x="205" y="697"/>
      <point x="151" y="697" type="curve" smooth="yes"/>
      <point x="94" y="697"/>
      <point x="56" y="658"/>
    </contour>
  </outline>
</glyph>
<glyph name="two.osf" format="2">
  <advance width="456"/>
  <outline>
    <contour>
      <point x="13" y="0" type="line"/>
      <point x="370" y="0" type="line"/>
      <point x="385" y="105" type="line"/>
      <point x="172" y="105" type="line"/>
      <point x="176" y="112"/>
      <point x="191" y="129"/>
      <point x="196" y="134" type="curve" smooth="yes"/>
      <point x="255" y="193"/>
      <point x="434" y="328"/>
      <point x="434" y="482" type="curve" smooth="yes"/>
      <point x="434" y="564"/>
      <point x="366" y="607"/>
      <point x="283" y="607" type="curve" smooth="yes"/>
      <point x="156" y="607"/>
      <point x="76" y="525"/>
      <point x="76" y="399" type="curve" smooth="yes"/>
      <point x="76" y="395"/>
      <point x="76" y="392"/>
      <point x="76" y="392" type="curve"/>
      <point x="194" y="392" type="line"/>
      <point x="199" y="427" type="line" smooth="yes"/>
      <point x="205" y="472"/>
      <point x="228" y="510"/>
      <point x="268" y="510" type="curve" smooth="yes"/>
      <point x="302" y="510"/>
      <point x="311" y="484"/>
      <point x="311" y="464" type="curve" smooth="yes"/>
      <point x="311" y="363"/>
      <point x="177" y="268"/>
      <point x="113" y="202" type="curve" smooth="yes"/>
      <point x="68" y="155"/>
      <point x="25" y="95"/>
      <point x="16" y="24" type="curve" smooth="yes"/>
    </contour>
  </outline>
</glyph>
<glyph name="y.loclGUA" format="2">
  <advance width="501"/>
  <anchor x="214" y="0" name="bottom"/>
  <anchor x="288" y="526" name="top"/>
  <outline>
    <contour>
      <point x="182" y="-182" type="curve" smooth="yes"/>
      <point x="316" y="-182"/>
      <point x="395" y="-100"/>
      <point x="414" y="63" type="curve" smooth="yes"/>
      <point x="479" y="526" type="line"/>
      <point x="359" y="526" type="line"/>
      <point x="319" y="243" type="line" smooth="yes"/>
      <point x="309" y="174"/>
      <point x="276" y="119"/>
      <point x="220" y="119" type="curve" smooth="yes"/>
      <point x="179" y="119"/>
      <point x="158" y="151"/>
      <point x="167" y="208" type="curve" smooth="yes"/>
      <point x="211" y="526" type="line"/>
      <point x="91" y="526" type="line"/>
      <point x="45" y="197" type="line" smooth="yes"/>
      <point x="26" y="64"/>
      <point x="91" y="15"/>
      <point x="172" y="15" type="curve" smooth="yes"/>
      <point x="236" y="15"/>
      <point x="271" y="41"/>
      <point x="297" y="82" type="curve"/>
      <point x="302" y="82" type="line"/>
      <point x="298" y="59" type="line" smooth="yes"/>
      <point x="281" y="-39"/>
      <point x="253" y="-84"/>
      <point x="194" y="-84" type="curve" smooth="yes"/>
      <point x="158" y="-84"/>
      <point x="126" y="-69"/>
      <point x="131" y="-25" type="curve"/>
      <point x="14" y="-25" type="line"/>
      <point x="13" y="-35" type="line" smooth="yes"/>
      <point x="4" y="-135"/>
      <point x="73" y="-182"/>
    </contour>
  </outline>
</glyph>
<glyph name="zero.osf" format="2">
  <advance width="456"/>
  <outline>
    <contour>
      <point x="190" y="-10" type="curve" smooth="yes"/>
      <point x="334" y="-10"/>
      <point x="423" y="153"/>
      <point x="423" y="418" type="curve" smooth="yes"/>
      <point x="423" y="563"/>
      <point x="367" y="607"/>
      <point x="277" y="607" type="curve" smooth="yes"/>
      <point x="133" y="607"/>
      <point x="44" y="443"/>
      <point x="44" y="177" type="curve" smooth="yes"/>
      <point x="44" y="34"/>
      <point x="99" y="-10"/>
    </contour>
    <contour>
      <point x="204" y="85" type="curve" smooth="yes"/>
      <point x="147" y="85"/>
      <point x="153" y="158"/>
      <point x="169" y="268" type="curve" smooth="yes"/>
      <point x="178" y="329" type="line" smooth="yes"/>
      <point x="194" y="439"/>
      <point x="208" y="512"/>
      <point x="264" y="512" type="curve" smooth="yes"/>
      <point x="321" y="512"/>
      <point x="314" y="439"/>
      <point x="298" y="329" type="curve" smooth="yes"/>
      <point x="289" y="268" type="line" smooth="yes"/>
      <point x="272" y="153"/>
      <point x="259" y="85"/>
    </contour>
  </outline>
</glyph>
<glyph name="zero.osf.zero" format="2">
  <advance width="456"/>
  <outline>
    <contour>
      <point x="114" y="39" type="line"/>
      <point x="163" y="39" type="line"/>
      <point x="351" y="559" type="line"/>
      <point x="302" y="559" type="line"/>
    </contour>
    <component base="zero.tosf"/>
  </outline>
</glyph>
<glyph name="zero.zero" format="2">
  <advance width="456"/>
  <outline>
    <contour>
      <point x="96" y="66" type="line"/>
      <point x="152" y="66" type="line"/>
      <point x="387" y="642" type="line"/>
      <point x="331" y="642" type="line"/>
    </contour>
    <component base="zero"/>
  </outline>
</glyph>
